<?xml version="1.0" standalone="no"?>
<!DOCTYPE svg PUBLIC "-//W3C//DTD SVG 20010904//EN"
 "http://www.w3.org/TR/2001/REC-SVG-20010904/DTD/svg10.dtd">
<svg version="1.0" xmlns="http://www.w3.org/2000/svg"
 width="1024.000000pt" height="1024.000000pt" viewBox="0 0 1024.000000 1024.000000"
 preserveAspectRatio="xMidYMid meet">

<g transform="translate(0.000000,1024.000000) scale(0.100000,-0.100000)"
fill="#000000" stroke="none">
<path d="M4952 8490 c-70 -25 -114 -53 -153 -97 -101 -116 -98 -281 8 -420 18
-24 32 -43 30 -43 -1 0 -20 7 -42 15 -62 22 -113 18 -180 -14 -76 -36 -107
-69 -143 -154 -34 -80 -49 -79 -20 1 48 139 -12 296 -150 387 -47 31 -155 59
-203 52 -106 -14 -236 -112 -280 -212 -35 -77 -31 -177 10 -260 54 -110 192
-215 283 -215 27 0 40 -6 48 -19 17 -32 12 -39 -37 -61 -26 -11 -62 -32 -81
-47 -28 -21 -36 -23 -43 -12 -5 8 -9 19 -9 25 0 17 -49 78 -73 91 -55 30 -138
7 -171 -47 -27 -47 -21 -95 19 -139 46 -51 77 -58 117 -29 28 19 31 20 25 4
-14 -35 -36 -186 -31 -201 13 -33 -16 -9 -136 110 -124 123 -124 124 -110 151
10 17 15 56 15 103 0 97 -35 180 -105 245 -56 52 -87 69 -158 86 -166 39 -352
-83 -398 -261 -35 -135 21 -264 159 -365 54 -40 70 -46 195 -70 37 -7 25 -21
-35 -40 -47 -15 -63 -27 -87 -62 -42 -59 -43 -131 -2 -192 l28 -43 -32 7 c-18
3 -40 6 -50 6 -11 0 -28 23 -50 73 -60 130 -121 205 -198 239 -175 79 -389
-26 -452 -223 -40 -123 -9 -238 92 -345 72 -77 131 -104 228 -104 55 0 86 5
113 19 35 18 41 18 95 4 31 -8 60 -17 64 -19 4 -3 -2 -23 -12 -47 -26 -56 -25
-92 5 -143 34 -57 98 -89 163 -80 59 8 91 31 120 89 l24 45 29 -16 c16 -10 29
-20 29 -24 0 -11 -101 -89 -128 -99 -12 -5 -61 -12 -109 -17 l-86 -8 -46 33
c-25 18 -74 47 -109 64 -58 29 -69 31 -150 27 -74 -2 -97 -8 -154 -36 -77 -38
-130 -92 -167 -171 -22 -47 -26 -70 -26 -142 0 -78 3 -91 38 -161 49 -99 124
-171 205 -194 147 -43 327 28 401 157 33 58 49 55 20 -3 -11 -22 -16 -37 -11
-34 5 3 15 19 21 34 14 34 83 61 105 43 9 -7 16 -7 25 2 11 9 11 7 0 -10 -7
-12 -15 -20 -19 -18 -3 1 -11 -3 -18 -11 -8 -9 -9 -14 -2 -14 6 0 8 -5 4 -12
-5 -7 -3 -8 5 -4 7 5 10 10 7 13 -6 6 72 73 85 73 5 0 -6 -14 -25 -31 -20 -17
-50 -61 -68 -97 -64 -129 -38 -260 74 -378 29 -31 75 -67 102 -81 69 -35 183
-30 273 11 63 29 133 92 155 141 6 14 15 25 19 25 14 0 -35 -84 -72 -120 -19
-20 -64 -48 -100 -63 -36 -15 -55 -26 -42 -27 12 0 30 -3 40 -6 13 -4 14 -3 5
4 -11 7 -11 10 1 15 12 5 35 -21 25 -27 -2 -1 -14 -7 -28 -14 -20 -9 -11 -10
50 -5 41 3 79 9 84 14 6 5 17 9 26 9 10 0 21 17 29 47 29 96 70 133 147 133
24 0 46 5 49 10 3 6 18 10 33 10 21 0 23 3 12 10 -8 5 -11 12 -8 15 4 4 33 -9
65 -29 73 -45 111 -56 190 -56 l62 0 93 -88 c51 -49 143 -130 203 -182 123
-104 125 -106 125 -137 0 -21 -1 -22 -37 -9 -21 7 -60 27 -88 43 -67 39 -270
129 -320 142 -22 6 -107 22 -188 36 -155 26 -388 34 -487 16 -190 -35 -384
-88 -452 -122 -58 -30 -109 -79 -129 -126 l-18 -43 -93 0 c-51 0 -110 -5 -131
-11 -48 -13 -102 -61 -129 -113 -12 -23 -62 -192 -113 -376 -202 -735 -250
-907 -332 -1190 -121 -418 -126 -438 -119 -493 7 -63 40 -120 89 -154 l40 -28
901 -5 901 -5 65 -35 c48 -25 102 -72 205 -175 253 -252 432 -348 653 -347
114 0 216 24 329 77 137 64 193 106 354 260 96 93 163 149 200 167 115 58 97
57 1026 63 957 7 903 2 969 77 42 48 58 98 49 156 -9 65 -62 280 -81 333 -9
24 -29 91 -45 149 -16 58 -34 117 -40 131 -14 35 -68 243 -64 247 4 4 55 -153
55 -172 0 -9 5 -16 10 -16 13 0 13 -3 -10 70 -11 34 -20 69 -20 76 0 8 -4 22
-10 32 -5 9 -19 46 -30 82 -18 60 -19 56 -5 -32 5 -31 5 -32 -6 -8 -13 30
-119 400 -119 415 1 24 20 -28 50 -135 18 -63 40 -124 48 -135 l14 -20 -7 20
c-4 11 -14 40 -21 65 -7 25 -24 84 -38 133 -14 48 -26 92 -26 98 0 6 -7 25
-14 42 -8 18 -19 48 -25 67 -5 22 -10 27 -10 14 -1 -11 6 -44 15 -73 8 -29 14
-55 12 -57 -4 -3 -41 112 -107 331 -16 55 -40 143 -52 195 -12 52 -30 112 -41
133 -50 100 -153 157 -281 157 l-72 0 -25 48 c-33 61 -93 98 -253 150 -182 60
-346 86 -547 86 -92 1 -203 -5 -250 -13 -115 -18 -314 -65 -378 -89 -62 -24
-71 -12 -10 13 32 12 39 19 27 26 -12 7 -12 9 1 9 8 1 2 7 -15 14 -20 9 -36
10 -48 4 -10 -5 -21 -7 -25 -4 -7 8 139 158 183 189 l30 21 -24 -27 c-14 -15
-20 -27 -14 -27 5 0 17 8 27 19 11 12 25 16 41 13 14 -2 25 0 25 7 0 6 12 8
33 5 29 -5 30 -4 14 9 -15 13 -13 15 28 20 25 4 73 21 107 38 51 25 59 27 41
10 -28 -27 -28 -26 1 -26 17 0 22 4 18 15 -5 13 -4 13 12 1 10 -9 20 -11 24
-5 8 11 51 16 189 22 23 1 48 8 55 16 12 12 18 7 42 -30 35 -56 95 -107 164
-141 97 -48 252 -27 342 45 113 92 163 281 105 398 -14 28 -41 69 -61 92 -37
44 -35 54 5 25 14 -9 22 -12 18 -6 -4 6 10 10 36 11 23 1 48 4 57 7 10 3 22
-7 35 -32 30 -55 105 -127 166 -160 48 -25 64 -28 144 -28 77 1 98 5 147 29
64 30 135 104 171 176 17 34 23 67 25 137 4 86 2 98 -26 158 -39 82 -106 154
-176 188 -45 22 -68 27 -133 27 -81 0 -158 -16 -214 -44 -43 -21 -47 -20 -20
6 21 18 23 28 18 73 -3 29 -14 70 -26 93 l-20 40 30 6 c17 3 63 1 102 -5 102
-16 191 -7 253 24 62 31 169 144 197 206 32 70 27 164 -12 246 -100 214 -322
286 -509 165 -70 -45 -134 -133 -153 -212 -7 -29 -14 -47 -17 -40 -3 10 -7 10
-20 0 -12 -10 -16 -10 -19 0 -3 6 -9 9 -15 6 -7 -4 -7 5 -2 27 4 19 7 49 6 67
-4 64 -66 150 -120 167 -34 10 -14 27 65 55 54 19 79 36 127 84 117 117 152
237 107 357 -26 69 -113 159 -191 197 -47 23 -67 27 -145 27 -76 0 -99 -4
-145 -26 -105 -49 -167 -141 -177 -259 -3 -40 -1 -88 6 -115 9 -38 9 -51 -1
-65 -23 -31 -200 -235 -207 -237 -3 -2 -7 23 -7 55 -2 92 -34 160 -107 228
-35 32 -81 69 -102 81 -33 19 -35 22 -13 17 21 -5 35 0 59 21 18 14 68 44 111
66 47 24 76 44 72 50 -4 7 1 9 15 4 22 -7 30 10 9 18 -15 5 34 27 61 27 11 0
31 21 50 52 38 60 37 81 -2 168 -13 30 -27 62 -31 70 -3 8 -4 -4 -2 -28 5 -49
-17 -148 -45 -204 -23 -45 -92 -118 -140 -147 -52 -32 -59 -25 -8 8 95 61 168
180 177 288 4 56 1 69 -30 135 -56 117 -135 185 -247 214 -105 26 -208 -1
-299 -81 -66 -58 -95 -123 -100 -228 l-4 -87 -27 35 c-31 41 -81 80 -136 106
-44 20 -179 27 -190 9 -3 -5 -11 -10 -17 -10 -6 0 -2 10 10 23 73 77 90 237
37 336 -16 29 -56 78 -89 107 -99 90 -210 115 -324 74z m171 -154 c43 -18 73
-53 86 -101 14 -51 14 -55 -1 -55 -7 0 -23 -18 -35 -39 -17 -30 -34 -43 -70
-57 -27 -9 -57 -26 -69 -36 -29 -25 -48 -23 -88 12 -42 38 -71 107 -63 154 16
100 142 164 240 122z m-931 -295 c51 -20 94 -79 98 -136 3 -47 1 -55 -14 -49
-9 3 -17 -3 -21 -16 -12 -37 -57 -70 -107 -76 -26 -4 -49 -13 -52 -20 -7 -17
-50 -3 -83 28 -32 30 -57 100 -49 141 8 43 48 97 89 120 34 18 101 22 139 8z
m1894 -7 c19 -9 44 -30 55 -46 l21 -29 -21 -67 c-30 -99 -78 -137 -159 -126
l-48 6 -12 -41 c-10 -32 -43 -70 -159 -183 -81 -79 -221 -216 -312 -305 -115
-113 -173 -163 -188 -163 -35 0 -27 21 28 75 28 28 96 99 152 159 84 90 99
110 87 120 -9 6 -27 26 -43 44 -21 26 -25 37 -17 52 9 17 13 16 67 -16 31 -19
59 -34 62 -34 3 0 71 63 150 138 l144 138 -22 31 c-100 134 62 319 215 247z
m-1001 -56 c15 -63 2 -696 -16 -786 -8 -41 -14 -52 -27 -50 -14 3 -18 22 -23
123 -9 168 -10 600 -3 674 7 59 8 61 35 61 21 0 30 -6 34 -22z m-288 -203 c27
-31 40 -74 25 -84 -5 -3 -17 -22 -25 -43 -11 -27 -23 -38 -46 -43 -17 -3 -35
-3 -41 0 -6 4 -27 7 -46 7 -38 0 -54 22 -54 75 0 101 125 160 187 88z m691 19
c36 -25 68 -97 40 -91 -7 1 -17 -13 -24 -32 -17 -51 -50 -74 -95 -67 -33 5
-37 4 -32 -13 7 -29 -32 -16 -56 18 -46 64 -32 142 32 181 39 24 104 26 135 4z
m-1209 -88 c87 -64 550 -548 582 -608 6 -11 6 -18 0 -18 -5 0 -16 -2 -24 -5
-15 -6 -89 61 -423 390 -168 165 -214 216 -214 236 0 50 17 51 79 5z m-906
-85 c54 -21 103 -104 79 -134 -5 -7 -13 -26 -17 -44 -15 -72 -132 -127 -190
-89 -33 22 -32 3 1 -23 25 -20 26 -21 5 -21 -32 0 -99 72 -107 115 -15 81 18
149 90 185 44 21 100 26 139 11z m3501 -12 c13 -6 31 -24 41 -41 21 -37 15
-100 -16 -165 -29 -59 -88 -76 -165 -46 -12 4 -15 3 -10 -6 14 -22 -3 -59 -51
-113 -78 -90 -536 -551 -576 -582 -21 -16 -34 -32 -30 -36 4 -5 92 -11 195
-15 l188 -7 9 24 c14 36 75 86 122 98 64 17 104 5 157 -47 l45 -46 205 17
c113 9 207 18 209 19 1 2 -2 19 -7 38 -24 83 -7 143 54 197 39 34 88 48 140
38 57 -11 77 -34 81 -95 5 -64 -26 -141 -56 -141 -10 0 -21 -4 -24 -10 -9 -15
-80 -12 -120 4 -39 17 -46 13 -39 -23 5 -25 2 -28 -36 -40 -112 -33 -404 -53
-428 -29 -7 7 -12 8 -13 3 -3 -70 -14 -103 -42 -132 -26 -27 -38 -33 -74 -33
-24 0 -60 7 -80 15 -45 19 -41 20 -45 -12 l-3 -28 -23 35 c-12 19 -22 47 -22
62 0 49 -28 53 -320 45 l-155 -4 -35 -34 c-36 -35 -610 -625 -643 -661 -21
-23 -52 -20 -52 4 0 10 142 162 315 339 l315 322 5 213 c3 117 9 216 13 221 5
4 15 -1 23 -11 11 -15 14 -56 14 -172 0 -93 4 -155 10 -159 22 -13 84 43 325
292 137 142 287 296 332 342 46 47 83 86 83 88 0 2 -11 20 -24 41 -41 62 -38
139 7 188 53 58 131 75 201 43z m-1516 -200 c-4 -10 -98 -109 -103 -109 -3 0
-5 35 -5 79 l0 79 55 -21 c31 -11 54 -23 53 -28z m-1474 25 c9 -8 16 -22 16
-30 0 -21 -41 -74 -57 -74 -15 0 -43 51 -43 78 0 40 54 57 84 26z m995 -74 c1
-41 -8 -80 -19 -80 -4 0 -35 31 -68 69 -53 59 -59 69 -39 69 12 0 42 4 67 9
51 10 57 2 59 -67z m845 -27 c25 -27 46 -54 46 -60 0 -16 -3 -17 54 12 53 27
122 33 159 14 12 -6 34 -23 50 -37 64 -60 12 -211 -79 -228 -42 -8 -68 1 -110
38 -39 34 -38 34 -51 -7 l-10 -30 -16 25 c-11 17 -17 53 -19 113 -2 66 -7 91
-18 98 -38 22 -52 40 -60 73 -4 20 -4 36 0 36 4 0 28 -21 54 -47z m-1943 -351
c182 -180 337 -331 346 -336 16 -9 32 7 33 34 7 164 19 273 31 281 8 5 18 4
24 -2 12 -12 23 -293 14 -364 -4 -27 -4 -55 0 -61 3 -6 96 -105 206 -219 336
-350 367 -382 393 -419 14 -20 23 -39 20 -42 -7 -7 -78 37 -97 59 -20 25 -69
47 -74 34 -3 -11 -29 10 -57 48 -13 17 -12 17 17 -3 39 -27 57 -28 24 -2 -13
11 -20 20 -15 20 4 0 -17 18 -46 40 -29 22 -58 40 -63 40 -9 0 -92 83 -137
137 -14 16 -34 33 -44 37 -10 3 -16 9 -13 13 4 3 -22 36 -57 72 -35 36 -80 85
-100 107 -65 75 -120 88 -469 118 l-49 4 -19 -47 c-25 -58 -63 -97 -107 -112
-32 -10 -36 -9 -69 22 l-36 34 7 -27 c5 -24 3 -28 -14 -28 -26 0 -60 55 -60
97 0 43 -20 52 -138 64 -124 12 -251 40 -226 50 14 4 8 8 -23 13 -24 4 -45 12
-49 17 -7 11 -9 12 121 -6 61 -8 152 -15 204 -15 88 0 95 2 130 29 57 45 96
61 149 61 60 0 107 -29 135 -82 l19 -38 154 0 c106 0 154 3 154 11 0 12 -31
51 -96 120 -24 26 -40 50 -36 54 4 4 -2 5 -13 3 -13 -2 -19 2 -17 11 4 17 -48
72 -60 65 -13 -8 -104 97 -100 115 2 14 2 14 -7 1 -9 -12 -24 -2 -83 59 -40
40 -63 68 -50 62 12 -7 22 -8 22 -2 0 5 -11 12 -25 15 -14 4 -23 11 -20 16 3
5 0 12 -6 16 -8 4 -9 3 -5 -4 4 -7 3 -12 -2 -12 -17 0 -125 124 -112 128 8 3
9 6 1 11 -7 5 -6 14 5 29 12 18 19 20 35 12 10 -6 168 -158 350 -338z m527
301 c15 -11 35 -35 44 -54 18 -36 23 -63 10 -55 -5 3 -13 -14 -19 -37 -15 -53
-51 -87 -102 -97 -36 -6 -62 -1 -125 25 -17 8 -19 5 -13 -29 6 -38 6 -38 -15
-20 -45 41 -63 137 -34 192 47 91 180 130 254 75z m828 -204 c51 -24 85 -67
107 -133 23 -66 21 -124 -3 -163 -21 -35 -38 -46 -20 -14 21 41 9 43 -25 4
-32 -38 -40 -41 -112 -52 -42 -6 -80 -16 -83 -22 -8 -12 -49 -6 -77 11 -27 18
-62 71 -74 115 -16 55 6 167 39 207 56 66 166 87 248 47z m-493 -82 c72 -68
78 -76 71 -103 -4 -16 -9 -31 -11 -33 -2 -3 -28 7 -58 22 -30 15 -72 30 -93
33 -34 5 -44 2 -75 -26 -46 -40 -47 -29 -2 40 19 30 39 79 45 107 14 64 13 64
123 -40z m967 -7 c11 -21 47 -62 81 -92 l61 -53 -6 -129 c-4 -96 -10 -135 -22
-155 -16 -24 -456 -473 -460 -468 -1 1 2 70 6 154 6 120 11 156 24 168 9 9 16
25 16 36 0 10 5 19 10 19 6 0 10 8 10 19 0 20 23 45 33 34 4 -3 15 12 24 33
l18 40 40 -23 c85 -48 174 -36 234 33 49 55 52 133 10 216 -24 47 -92 88 -162
97 l-52 6 43 14 c28 10 42 20 42 32 0 10 5 21 11 25 6 3 9 15 6 25 -8 30 11
12 33 -31z m-2200 -53 c14 -27 14 -29 -13 -53 -35 -30 -54 -30 -84 -2 -29 27
-29 52 0 73 33 24 78 15 97 -18z m3407 -7 c16 -32 -3 -64 -41 -68 -34 -4 -56
13 -56 44 0 54 73 73 97 24z m-3959 -4 c89 -49 77 -212 -19 -250 -53 -21 -101
-20 -144 4 -46 26 -47 25 -39 -7 13 -51 -24 -6 -42 51 -26 82 0 149 77 195 39
24 130 28 167 7z m957 -94 c-6 -7 -35 18 -35 31 0 5 9 2 20 -8 11 -10 18 -20
15 -23z m582 -59 c-2 -16 -4 -5 -4 22 0 28 2 40 4 28 2 -13 2 -35 0 -50z m223
47 c25 -25 25 -41 -1 -74 -25 -31 -42 -33 -69 -6 -24 24 -26 57 -3 82 21 24
48 23 73 -2z m946 -5 c32 -49 -7 -105 -59 -86 -30 12 -41 40 -28 74 17 43 62
50 87 12z m-1127 -157 c73 -106 224 -126 289 -38 l21 29 33 -32 c18 -18 43
-39 55 -47 21 -14 22 -23 29 -259 4 -140 3 -242 -2 -240 -8 3 -125 126 -394
409 -58 62 -70 95 -69 187 1 45 4 67 8 52 3 -14 17 -42 30 -61z m643 -31 c7
-11 6 -41 -10 -447 -9 -211 -23 -283 -46 -243 -12 20 -22 646 -12 689 6 22 11
25 34 19 15 -4 30 -12 34 -18z m-1847 -301 c11 -33 -2 -57 -39 -70 -20 -8 -30
-6 -43 7 -22 21 -21 76 1 92 26 19 69 4 81 -29z m3763 18 c26 -18 29 -60 5
-86 -22 -25 -38 -23 -62 8 -26 33 -26 49 -1 74 24 24 29 24 58 4z m-2916 -41
c30 -23 80 -70 111 -105 30 -34 161 -164 290 -287 l235 -224 4 -66 c6 -78 32
-135 94 -205 41 -45 57 -86 34 -86 -5 0 -10 4 -10 9 0 5 -44 56 -98 113 -108
113 -116 124 -127 183 -21 120 -123 223 -246 249 -50 11 -77 42 -84 98 -4 29
-13 67 -20 85 -18 43 -85 110 -129 128 -46 19 -168 19 -232 0 -27 -8 -52 -15
-56 -15 -4 0 -30 23 -58 51 l-51 52 32 33 32 33 113 -2 112 -3 54 -41z m2312
14 c9 -16 5 -24 -29 -53 -50 -44 -74 -50 -140 -34 -34 8 -87 11 -147 8 l-93
-6 35 29 c41 34 114 59 179 60 25 0 66 4 91 9 63 11 91 8 104 -13z m425 -86
c16 -38 81 -100 117 -111 26 -7 23 -8 -21 -9 -27 0 -62 5 -77 12 -26 12 -123
96 -116 102 11 9 65 34 74 35 6 0 17 -13 23 -29z m-3119 -101 c33 -23 65 -98
55 -129 -3 -12 -10 -19 -15 -16 -5 3 -16 -9 -23 -28 -8 -18 -27 -44 -43 -56
-29 -23 -45 -24 -141 -7 -23 4 -33 2 -33 -7 -1 -6 -15 4 -33 24 l-32 37 -185
-8 c-216 -9 -319 -4 -327 17 -10 25 -23 -7 -23 -55 0 -57 -12 -78 -60 -102
-41 -21 -110 -27 -110 -10 0 5 -7 7 -15 4 -8 -4 -26 1 -40 10 -24 16 -43 7
-30 -14 3 -5 1 -10 -5 -10 -6 0 -20 21 -32 46 -25 59 -20 119 15 173 33 49 80
71 154 71 70 0 104 -15 121 -55 l13 -30 212 8 c117 4 235 10 262 13 49 5 51 7
75 57 20 41 35 57 70 75 54 28 124 25 170 -8z m2869 19 c107 -38 59 -246 -62
-266 -33 -5 -37 -2 -62 36 -31 46 -29 45 -56 30 -16 -8 -25 -7 -40 7 -16 15
-32 16 -111 11 -129 -9 -168 -17 -168 -34 0 -16 -111 -139 -157 -172 -36 -26
-40 -45 -18 -75 22 -29 19 -114 -5 -153 -24 -40 -53 -56 -104 -56 -34 0 -45 6
-72 37 -29 34 -32 35 -40 16 -5 -12 -117 -129 -249 -260 -201 -201 -245 -240
-268 -240 -26 0 -1 28 227 255 l256 255 -6 53 c-12 104 47 172 141 163 28 -2
59 -7 70 -10 15 -5 25 2 43 31 13 21 50 67 83 102 32 35 59 65 59 67 0 2 16
20 35 41 l35 38 97 -2 c114 -3 130 0 139 30 11 37 42 73 76 90 38 19 111 22
157 6z m866 -102 l27 -23 -24 -11 c-12 -6 -44 -14 -71 -18 -26 -3 -52 -12 -58
-18 -5 -7 -25 -30 -44 -52 -28 -32 -35 -48 -35 -82 0 -44 -16 -65 -31 -42 -5
8 -9 37 -9 64 0 28 -4 55 -8 62 -10 15 -86 23 -324 32 -109 4 -201 10 -205 15
-26 26 121 32 402 17 129 -7 130 -7 149 17 35 44 76 62 143 62 50 0 67 -4 88
-23z m-1586 -69 c1 -72 -4 -78 -63 -78 -63 0 -146 -37 -198 -88 -21 -20 -38
-31 -38 -25 0 14 82 93 150 143 86 64 96 73 115 104 17 26 20 27 26 10 4 -11
8 -40 8 -66z m-1804 30 c18 -8 25 -19 25 -40 l0 -29 -77 6 c-151 11 -203 16
-218 21 -22 9 -18 33 8 44 33 13 232 12 262 -2z m262 -243 c89 -2 143 -66 143
-168 0 -19 -32 -80 -56 -106 -13 -14 -93 -17 -133 -5 -51 15 -60 12 -40 -13 7
-10 1 -7 -14 6 -15 14 -27 32 -27 42 0 37 -19 40 -241 31 -245 -10 -269 -10
-286 1 -51 33 29 43 387 50 l115 2 5 36 c4 19 18 51 33 71 l27 35 -37 24 c-54
35 -104 104 -101 141 2 29 4 28 88 -58 84 -87 85 -88 137 -89z m838 106 c37
-21 91 -99 105 -152 15 -56 3 -126 -29 -161 -23 -26 -35 -30 -101 -36 -41 -4
-102 -7 -134 -6 -56 0 -61 3 -93 39 -18 21 -36 53 -39 72 -9 50 4 142 27 190
20 41 50 60 124 77 33 7 108 -5 140 -23z m1205 -142 c34 -21 34 -22 12 -30
-26 -10 -55 -1 -49 15 2 6 -5 16 -17 23 -20 12 -20 12 -1 13 11 0 36 -10 55
-21z m-2379 -6 c36 -21 37 -31 4 -39 -29 -7 -91 2 -150 21 -39 12 -39 13 -10
14 17 1 37 6 45 11 24 15 79 12 111 -7z m-397 -67 c40 -17 52 -32 37 -49 -6
-8 -6 -18 -1 -27 19 -29 11 -72 -17 -96 -28 -24 -73 -33 -73 -14 0 5 -7 7 -15
4 -8 -4 -12 -11 -8 -18 4 -6 0 -5 -9 2 -14 11 -18 11 -25 -1 -10 -16 -43 -30
-43 -18 0 5 -7 12 -16 15 -14 5 -16 1 -11 -34 7 -52 -6 -51 -32 3 -72 148 63
296 213 233z m3126 -1 c28 -14 41 -35 22 -35 -5 0 -18 -17 -30 -38 -34 -61
-55 -79 -107 -95 -48 -14 -50 -15 -55 -57 l-5 -42 -19 21 c-10 11 -23 47 -28
78 -5 32 -10 59 -12 60 -2 2 -113 7 -247 11 -207 6 -244 9 -244 22 0 13 35 15
251 15 l252 0 27 28 c46 45 139 61 195 32z m-1283 -87 c-3 -8 -6 -5 -6 6 -1
11 2 17 5 13 3 -3 4 -12 1 -19z m-32 -98 c-54 -55 -75 -60 -27 -6 16 19 32 33
35 30 2 -2 10 2 17 11 7 8 15 15 18 15 4 0 -16 -22 -43 -50z m-644 -199 c110
-110 199 -202 199 -205 0 -3 -16 4 -35 15 -34 20 -76 59 -244 222 -94 92 -151
167 -125 167 4 0 96 -90 205 -199z m303 153 c14 -5 16 -28 16 -144 0 -76 -5
-174 -12 -217 -6 -43 -11 -96 -11 -118 5 -404 2 -681 -7 -810 -18 -229 -19
-1323 -2 -1337 6 -6 12 -15 12 -20 0 -6 -30 19 -67 55 -185 178 -306 268 -503
374 -229 123 -581 195 -860 178 -109 -7 -336 -38 -405 -56 -100 -26 -203 -62
-267 -94 -38 -19 -74 -35 -79 -35 -13 0 -5 58 23 160 11 41 48 185 83 320 35
135 84 324 110 420 42 160 59 223 115 435 33 125 71 250 78 257 9 9 229 72
334 95 66 14 127 18 303 18 194 0 232 -3 325 -23 278 -62 536 -198 721 -379
l66 -65 -4 424 c-4 367 0 568 12 568 2 0 10 -3 19 -6z m-1307 -290 c-3 -3 -12
-4 -19 -1 -8 3 -5 6 6 6 11 1 17 -2 13 -5z m1084 -40 c23 -25 23 -26 2 -13
-13 7 -25 19 -27 26 -8 19 -2 16 25 -13z m173 -70 c7 -19 2 -18 -19 6 -16 17
-16 20 -3 15 9 -4 19 -13 22 -21z m1476 -134 c127 -21 172 -32 317 -77 l82
-26 7 -46 c7 -55 27 -134 88 -346 72 -249 103 -363 226 -830 18 -66 44 -160
60 -210 40 -128 43 -145 27 -145 -8 0 -40 9 -73 21 -222 78 -466 133 -664 150
-323 28 -712 -56 -964 -208 -50 -29 -96 -51 -104 -48 -7 2 -10 0 -7 -5 3 -5
-5 -15 -19 -22 -14 -6 -26 -15 -26 -20 0 -5 -10 -6 -22 -3 -18 5 -20 4 -8 -4
8 -6 10 -11 4 -11 -7 0 -56 -42 -109 -92 -54 -51 -113 -103 -132 -116 -29 -20
-34 -21 -39 -7 -4 9 -4 40 0 68 3 29 6 391 6 804 l1 751 67 66 c172 168 391
277 682 340 152 33 152 33 325 34 109 2 184 -4 275 -18z m-1130 -25 c-7 -8
-17 -15 -22 -15 -6 0 -5 7 2 15 7 8 17 15 22 15 6 0 5 -7 -2 -15z m-2301 -261
c12 -4 12 -7 -1 -22 -17 -20 -54 -113 -73 -179 -7 -26 -25 -88 -40 -138 -15
-49 -34 -117 -42 -150 -24 -104 -29 -120 -40 -118 -13 3 -50 -110 -58 -177 -8
-67 -24 -120 -35 -120 -5 0 -11 -9 -15 -20 -3 -11 -19 -28 -34 -39 l-27 -20 3
32 c2 29 1 28 -9 -8 -8 -29 -8 -40 1 -43 6 -2 11 -8 11 -13 0 -6 -4 -8 -9 -5
-4 3 -7 -13 -5 -37 3 -48 -15 -145 -25 -129 -4 6 -12 -2 -20 -20 -8 -18 -16
-26 -20 -19 -4 6 -18 -33 -30 -86 -13 -54 -29 -107 -36 -118 -16 -27 -32 -77
-50 -155 -33 -150 -86 -354 -94 -364 -5 -6 -11 -20 -14 -31 -3 -14 -5 -10 -6
11 -1 41 55 272 125 516 31 106 66 234 79 283 12 50 57 212 99 360 43 149 93
329 113 400 19 72 48 175 63 230 15 55 31 116 35 135 4 19 11 40 16 46 8 10
105 9 138 -2z m4162 0 c5 -3 9 -24 9 -47 0 -23 6 -67 13 -98 13 -53 13 -55 -7
-55 -17 1 -20 -4 -18 -26 5 -38 -15 -36 -23 2 -4 16 -11 32 -16 35 -13 9 -11
-12 5 -43 7 -15 23 -70 35 -122 12 -52 26 -109 32 -126 5 -16 25 -93 44 -170
20 -76 46 -175 60 -219 29 -98 81 -297 99 -385 16 -75 70 -259 128 -438 28
-85 37 -127 30 -134 -14 -14 -315 -15 -862 -4 -492 10 -604 4 -779 -46 -111
-31 -293 -118 -382 -184 -27 -19 -83 -77 -125 -127 -117 -139 -176 -183 -289
-213 -90 -24 -218 -12 -247 24 -11 13 -10 15 3 10 57 -21 138 -29 194 -19 108
20 174 61 272 168 136 149 188 196 274 247 278 166 427 187 1159 168 485 -13
740 -15 764 -6 13 5 13 9 1 27 -15 24 -101 310 -165 547 -23 85 -65 238 -95
340 -29 102 -68 237 -85 300 -44 161 -135 464 -159 530 -19 52 -19 56 -3 68
16 13 111 10 133 -4z m-3286 -1389 c165 -25 370 -87 475 -143 107 -58 286
-170 301 -189 12 -16 12 -17 -1 -6 -9 7 -49 29 -90 49 -41 20 -77 39 -80 43
-11 13 -115 64 -157 76 -25 8 -45 9 -49 4 -3 -5 -22 -10 -42 -10 -23 -1 -29
-3 -14 -6 12 -2 22 -9 22 -15 0 -14 -115 -5 -205 16 -56 14 -124 17 -349 16
-306 0 -467 -11 -596 -41 -47 -11 -137 -31 -200 -45 -63 -14 -125 -32 -137
-40 -31 -20 -33 -18 -33 19 0 41 31 92 67 110 97 49 454 143 630 166 112 14
350 12 458 -4z m2770 0 c180 -27 428 -90 550 -141 67 -28 89 -43 101 -66 13
-25 14 -32 2 -40 -20 -13 -106 -4 -270 31 -299 63 -854 68 -1123 10 -111 -24
-140 -24 -179 0 -24 14 -38 16 -62 10 -38 -11 -196 -113 -189 -122 3 -4 2 -5
-1 -2 -4 2 -23 -8 -43 -24 -20 -16 -45 -31 -57 -35 -11 -3 -61 -45 -110 -91
-60 -58 -79 -81 -58 -71 17 8 36 22 43 30 17 20 31 21 31 2 0 -8 -26 -36 -57
-62 -31 -27 -67 -59 -79 -71 -20 -22 -64 -32 -64 -15 0 17 65 109 122 174 86
96 268 232 428 320 263 143 687 212 1015 163z m404 -251 c9 -8 -45 -2 -64 6
-14 7 -8 8 20 3 22 -3 42 -7 44 -9z m-2364 -104 c3 -5 1 -10 -4 -10 -6 0 -11
5 -11 10 0 6 2 10 4 10 3 0 8 -4 11 -10z m-675 -61 c85 -13 199 -53 280 -96
141 -76 156 -84 180 -104 22 -19 21 -19 -15 2 -150 86 -293 139 -440 165 -75
14 -144 16 -420 11 -181 -3 -341 -8 -355 -12 -42 -9 -621 -18 -683 -11 -95 12
-54 26 76 26 67 0 221 5 342 11 568 28 895 31 1035 8z"/>
<path d="M3450 7203 c0 -13 29 -38 35 -31 3 3 -4 13 -15 23 -11 10 -20 13 -20
8z"/>
<path d="M3610 7036 c0 -2 11 -11 25 -20 25 -17 25 -16 13 4 -11 17 -38 29
-38 16z"/>
<path d="M5387 6463 c-6 -11 31 -44 38 -34 8 14 -6 41 -20 41 -8 0 -16 -3 -18
-7z"/>
<path d="M4750 6494 c0 -3 9 -17 20 -31 18 -23 20 -23 20 -6 0 10 -5 24 -12
31 -13 13 -28 16 -28 6z"/>
<path d="M5220 5598 c0 -6 -8 -21 -17 -32 -17 -20 -17 -20 0 -7 24 19 41 51
27 51 -5 0 -10 -5 -10 -12z"/>
<path d="M3795 4583 c-90 -5 -208 -24 -288 -45 -90 -24 -118 -50 -99 -93 14
-30 19 -30 124 -6 359 84 761 25 1059 -155 71 -43 93 -43 110 -3 12 30 11 33
-14 53 -56 44 -203 121 -300 157 -176 64 -419 102 -592 92z"/>
<path d="M3605 4296 c-234 -40 -265 -54 -265 -121 0 -39 10 -43 70 -25 261 78
651 71 906 -16 58 -20 231 -102 303 -145 52 -31 54 -32 67 -14 19 26 17 69 -3
87 -39 35 -249 141 -333 168 -261 85 -500 106 -745 66z"/>
<path d="M3541 4019 c-126 -21 -271 -63 -283 -82 -12 -19 -9 -51 6 -72 13 -18
16 -18 107 8 168 47 281 60 488 54 139 -4 209 -11 276 -26 189 -44 338 -103
461 -181 58 -36 77 -38 93 -6 21 39 9 59 -63 103 -168 103 -396 187 -580 212
-122 17 -373 12 -505 -10z"/>
<path d="M3630 3764 c-104 -11 -421 -89 -431 -106 -13 -20 -10 -68 4 -74 7 -2
87 12 177 33 164 37 166 37 395 38 218 0 236 -2 348 -28 182 -43 290 -89 455
-190 l84 -51 19 23 c40 49 24 69 -124 156 -96 57 -286 136 -376 156 -148 34
-436 56 -551 43z"/>
<path d="M6005 4560 c-201 -36 -380 -94 -520 -170 -99 -53 -110 -69 -77 -110
l18 -22 125 55 c163 72 198 83 364 119 253 54 508 49 718 -14 37 -11 74 -17
82 -14 16 6 21 71 7 92 -9 14 -173 59 -269 73 -109 17 -332 12 -448 -9z"/>
<path d="M6030 4290 c-213 -38 -253 -49 -407 -118 -207 -93 -250 -132 -209
-188 15 -18 18 -17 113 32 338 178 767 230 1143 138 135 -32 130 -33 130 22 0
42 -2 46 -35 60 -94 39 -360 84 -490 83 -44 0 -154 -14 -245 -29z"/>
<path d="M6091 4025 c-212 -32 -428 -103 -582 -190 -55 -31 -103 -63 -105 -70
-7 -17 23 -75 39 -75 6 0 46 19 87 43 99 57 177 87 335 130 192 53 260 62 455
61 186 0 275 -12 443 -60 48 -13 92 -22 97 -19 6 4 10 28 10 55 l0 48 -72 22
c-159 49 -246 62 -433 65 -123 3 -210 -1 -274 -10z"/>
<path d="M6155 3763 c-49 -2 -92 -8 -95 -13 -3 -5 -74 -28 -158 -49 -170 -45
-260 -83 -404 -172 -104 -65 -113 -79 -77 -118 l21 -22 86 48 c186 102 300
145 487 183 249 51 444 49 705 -5 69 -15 144 -29 167 -32 39 -5 42 -4 49 21 3
14 4 32 1 40 -6 16 -161 69 -268 91 -78 17 -298 36 -373 33 -28 -1 -91 -4
-141 -5z"/>
<path d="M5654 3246 c-48 -22 -89 -56 -47 -38 34 14 103 52 103 57 0 7 0 7
-56 -19z"/>
<path d="M2707 3673 c3 -7 6 -13 8 -13 2 0 5 6 8 13 3 8 -1 14 -8 14 -7 0 -11
-6 -8 -14z"/>
<path d="M4280 3060 c0 -5 5 -10 10 -10 6 0 10 5 10 10 0 6 -4 10 -10 10 -5 0
-10 -4 -10 -10z"/>
<path d="M6235 7493 c-31 -31 -56 -102 -44 -125 6 -11 13 -17 17 -14 3 4 25
-12 48 -35 41 -40 44 -41 74 -29 42 17 60 46 60 96 0 84 -105 157 -155 107z
m85 -117 c0 -8 -4 -18 -10 -21 -5 -3 -10 3 -10 14 0 12 5 21 10 21 6 0 10 -6
10 -14z"/>
<path d="M7170 7462 c0 -31 4 -42 15 -42 19 0 19 39 0 64 -14 18 -15 17 -15
-22z"/>
<path d="M6999 7153 c-13 -16 -12 -17 4 -4 9 7 17 15 17 17 0 8 -8 3 -21 -13z"/>
<path d="M7801 6474 c0 -11 3 -14 6 -6 3 7 2 16 -1 19 -3 4 -6 -2 -5 -13z"/>
<path d="M7760 6431 c0 -25 6 -27 13 -6 4 8 2 17 -3 20 -6 4 -10 -3 -10 -14z"/>
<path d="M3176 5721 c-3 -5 0 -11 8 -14 15 -6 26 1 26 15 0 11 -27 10 -34 -1z"/>
<path d="M3030 5599 c0 -5 5 -7 10 -4 6 3 10 8 10 11 0 2 -4 4 -10 4 -5 0 -10
-5 -10 -11z"/>
<path d="M5905 5270 c-16 -7 -17 -9 -3 -9 9 -1 20 4 23 9 7 11 7 11 -20 0z"/>
<path d="M7471 4464 c0 -11 3 -14 6 -6 3 7 2 16 -1 19 -3 4 -6 -2 -5 -13z"/>
<path d="M7490 4402 c0 -26 33 -142 41 -142 5 0 9 3 9 8 -1 15 -49 147 -50
134z"/>
<path d="M7540 4218 c5 -13 11 -36 15 -52 3 -15 8 -27 10 -25 7 8 -17 99 -26
99 -5 0 -5 -9 1 -22z"/>
<path d="M7805 3285 c4 -11 13 -39 21 -62 16 -52 34 -86 41 -79 6 6 -35 113
-55 141 l-14 20 7 -20z"/>
<path d="M7893 3025 c3 -11 11 -41 18 -67 6 -26 15 -46 19 -43 7 4 -26 114
-37 125 -3 3 -3 -4 0 -15z"/>
<path d="M7942 2860 c0 -14 2 -19 5 -12 2 6 2 18 0 25 -3 6 -5 1 -5 -13z"/>
<path d="M8082 2452 c3 -12 -2 -24 -14 -31 -11 -7 -17 -15 -14 -18 3 -3 -3
-18 -14 -33 -11 -16 -20 -33 -20 -39 0 -6 -9 -11 -19 -11 -30 0 -52 -79 -23
-81 9 0 26 -3 37 -6 11 -2 46 -5 78 -5 50 -1 62 3 86 26 25 24 28 34 25 67 -5
38 -32 94 -64 132 -20 24 -64 23 -58 -1z"/>
<path d="M3325 2402 c-104 -1 -197 -5 -205 -9 -8 -3 -22 -8 -30 -10 -16 -4
-230 -24 -295 -27 -22 -1 -56 -3 -75 -4 -19 -1 -30 -6 -24 -10 6 -4 14 -14 17
-22 4 -12 6 -11 6 3 1 13 9 17 34 16 30 -2 30 -2 5 -6 -16 -2 -28 -8 -28 -11
0 -11 61 -32 72 -26 5 3 41 0 81 -7 39 -6 97 -13 127 -15 105 -6 195 -15 210
-22 13 -5 866 -24 1031 -22 54 1 71 -3 95 -22 l29 -23 -33 42 c-39 50 -104 99
-187 141 l-60 31 -290 3 c-159 2 -375 2 -480 0z m800 -40 c-3 -3 -11 0 -18 7
-9 10 -8 11 6 5 10 -3 15 -9 12 -12z m60 -22 c3 -6 -1 -7 -9 -4 -18 7 -21 14
-7 14 6 0 13 -4 16 -10z"/>
<path d="M6255 2349 c-53 -4 -91 -11 -93 -18 -2 -6 -14 -11 -26 -11 -12 0 -37
-13 -56 -30 -19 -16 -41 -29 -47 -30 -7 0 -13 -4 -13 -9 0 -5 -14 -15 -32 -22
-18 -7 -50 -30 -71 -51 -22 -21 -41 -38 -43 -38 -2 0 -44 -39 -92 -87 -101
-101 -151 -146 -172 -156 -8 -4 -28 -16 -45 -27 -43 -28 -117 -61 -123 -55 -3
2 -19 -4 -36 -14 -17 -10 -44 -22 -61 -26 -47 -12 -165 -9 -177 3 -7 7 -23 12
-38 12 -14 0 -43 7 -65 15 -39 14 -125 20 -125 9 0 -12 28 -33 64 -48 20 -8
36 -13 36 -11 0 2 18 -2 40 -10 22 -8 40 -12 40 -9 0 3 7 -1 15 -9 15 -16 101
-29 189 -30 43 0 193 13 219 19 4 1 13 2 21 3 7 0 16 10 19 22 3 12 10 18 17
14 11 -6 42 10 72 37 7 7 21 18 29 23 106 68 187 138 229 201 17 23 39 46 50
49 11 4 18 11 15 16 -17 26 102 112 170 124 22 3 103 15 180 25 77 11 173 25
213 32 l73 13 -23 22 c-45 41 -191 63 -353 52z"/>
</g>
</svg>
