<?xml version="1.0" standalone="no"?>
<!DOCTYPE svg PUBLIC "-//W3C//DTD SVG 20010904//EN"
 "http://www.w3.org/TR/2001/REC-SVG-20010904/DTD/svg10.dtd">
<svg version="1.0" xmlns="http://www.w3.org/2000/svg"
 width="11326.000000pt" height="10519.000000pt" viewBox="0 0 11326.000000 10519.000000"
 preserveAspectRatio="xMidYMid meet">

<g transform="translate(0.000000,10519.000000) scale(0.100000,-0.100000)"
fill="#000000" stroke="none">
<path d="M46805 105092 c-55 -46 -190 -153 -300 -237 -363 -278 -525 -425
-656 -595 -237 -306 -848 -1231 -1816 -2751 -415 -650 -525 -830 -638 -1045
-199 -376 -227 -415 -506 -704 -238 -246 -786 -779 -1039 -1011 -594 -544
-1108 -953 -1655 -1318 -496 -331 -875 -540 -1525 -840 -966 -447 -1935 -941
-3955 -2016 -1211 -644 -1466 -778 -1472 -771 -8 8 139 243 234 374 133 182
216 274 518 576 377 376 624 650 901 996 682 850 1208 1795 1534 2755 196 578
321 1122 372 1615 16 161 16 630 -1 780 -55 496 -177 901 -408 1362 l-105 208
-482 -488 c-265 -268 -529 -537 -586 -597 -579 -611 -993 -1306 -1270 -2135
-273 -815 -407 -1677 -460 -2965 -19 -456 -62 -726 -172 -1065 -246 -765 -733
-1386 -1738 -2220 -251 -208 -548 -450 -554 -450 -3 0 31 69 75 153 118 223
385 766 474 962 500 1105 761 2010 852 2960 21 227 24 829 5 1045 -67 742
-245 1419 -556 2114 -64 142 -196 410 -254 514 l-29 54 -134 -113 c-568 -479
-1002 -1075 -1346 -1849 -284 -639 -422 -1135 -485 -1740 -20 -197 -17 -918 5
-1145 51 -512 122 -928 293 -1697 106 -479 123 -576 132 -766 27 -536 -111
-959 -456 -1392 -95 -120 -362 -386 -512 -511 -63 -53 -315 -253 -560 -445
-2046 -1601 -4338 -3465 -6591 -5362 -425 -357 -503 -427 -797 -704 -273 -259
-584 -579 -1182 -1218 -511 -547 -696 -737 -705 -728 -4 3 127 386 290 850
352 999 378 1070 620 1698 384 999 533 1453 654 1996 114 510 145 1086 85
1578 -101 837 -466 1627 -1068 2311 -312 355 -524 442 -773 320 -99 -49 -212
-158 -355 -342 -621 -802 -901 -1402 -959 -2053 -16 -188 -7 -362 46 -880 162
-1578 283 -2277 565 -3260 232 -809 303 -1210 303 -1700 1 -611 -130 -1042
-526 -1735 -195 -341 -409 -657 -892 -1315 -506 -691 -794 -1099 -1181 -1675
-2261 -3366 -3780 -6680 -4599 -10040 -210 -858 -348 -1557 -741 -3748 -37
-207 -69 -375 -71 -373 -7 7 -52 265 -87 501 -82 558 -122 1031 -151 1755 -35
906 -77 1468 -150 2050 -163 1284 -454 2304 -931 3260 -184 368 -223 427 -504
765 -68 83 -175 214 -237 293 -62 78 -116 143 -119 143 -4 0 -35 -73 -69 -163
-34 -90 -95 -246 -135 -348 -97 -246 -132 -352 -185 -555 -214 -819 -260
-1698 -134 -2530 114 -758 366 -1520 764 -2315 237 -473 460 -851 848 -1435
210 -317 301 -483 336 -615 39 -146 196 -1205 396 -2680 69 -503 128 -933 131
-955 3 -22 3 -37 0 -34 -3 3 -36 89 -71 190 -36 101 -151 398 -255 659 -103
261 -289 729 -413 1040 -258 649 -402 999 -562 1360 -342 773 -481 1030 -1130
2075 -337 543 -471 767 -615 1025 -132 236 -330 640 -415 844 -120 291 -234
648 -291 916 -52 247 -95 352 -222 540 -200 298 -694 841 -1039 1143 -1179
1030 -2641 1644 -4613 1937 -257 39 -772 101 -778 95 -3 -2 19 -66 48 -142 29
-76 84 -230 122 -342 89 -263 130 -349 270 -567 63 -98 254 -397 423 -664
1050 -1654 1562 -2322 2185 -2849 896 -759 1937 -1180 3178 -1286 255 -22 339
-51 526 -179 181 -123 279 -240 573 -681 846 -1270 1515 -2696 1977 -4215 128
-422 404 -1433 526 -1925 209 -846 318 -1477 360 -2085 15 -231 38 -776 50
-1200 5 -206 12 -442 15 -525 3 -82 10 -1129 15 -2325 10 -2422 20 -3001 65
-3930 52 -1059 128 -1944 340 -3950 125 -1183 156 -1492 153 -1507 -2 -8 -646
870 -1433 1952 -1100 1512 -1436 1981 -1458 2033 -47 114 -191 398 -297 586
-1121 1988 -2958 3185 -5725 3731 -422 83 -877 155 -985 155 -97 0 -157 -16
-355 -95 -88 -35 -179 -69 -203 -76 -32 -9 -42 -17 -39 -28 23 -79 62 -228 86
-326 48 -203 53 -211 295 -450 769 -762 1585 -1475 2266 -1982 1095 -814 2191
-1375 3280 -1677 687 -191 1038 -355 1435 -672 131 -105 388 -359 504 -499
312 -377 1114 -1516 1538 -2185 1042 -1648 1684 -3138 1998 -4640 174 -831
263 -1157 660 -2430 208 -667 288 -931 282 -936 -2 -2 -43 56 -92 128 -897
1353 -1752 2185 -2750 2678 -480 237 -962 386 -1505 464 -247 36 -437 48 -765
50 l-330 1 1 -195 c6 -750 265 -1473 762 -2124 133 -173 321 -385 532 -600
404 -411 768 -712 1235 -1021 871 -578 1846 -975 2975 -1215 335 -71 494 -145
641 -297 122 -126 174 -220 349 -636 617 -1466 1300 -2866 2067 -4235 1360
-2428 2952 -4703 4792 -6842 482 -561 916 -1047 1916 -2145 799 -876 874 -959
870 -963 -5 -5 -206 55 -388 118 -831 284 -1656 739 -2707 1494 -330 237 -703
515 -749 559 -24 23 -62 68 -84 101 -54 81 -295 547 -512 992 -545 1119 -706
1424 -957 1817 -428 672 -860 1101 -1644 1630 -314 212 -1018 654 -1139 715
-159 80 -284 99 -715 113 -190 5 -417 16 -505 23 -88 7 -162 12 -164 10 -6 -6
47 -264 95 -462 237 -972 677 -1834 1306 -2554 109 -126 398 -417 533 -537
415 -372 794 -639 1408 -993 660 -380 1070 -634 2217 -1373 283 -182 603 -387
710 -455 107 -68 197 -125 199 -127 5 -4 -30 -83 -40 -89 -7 -4 -968 426
-2774 1241 -1723 778 -2950 1340 -2991 1371 -52 40 -105 118 -234 343 -427
748 -856 1322 -1405 1880 -324 329 -586 560 -926 815 -1318 991 -2555 1348
-3846 1110 -370 -68 -811 -214 -969 -321 -78 -53 -119 -101 -158 -183 -28 -59
-30 -74 -30 -160 2 -131 30 -211 173 -493 543 -1069 1161 -1755 2031 -2253
725 -415 1558 -710 2420 -858 383 -66 678 -97 1150 -121 168 -8 361 -22 430
-30 534 -65 1082 -225 1685 -492 256 -114 804 -393 1285 -655 525 -286 783
-421 1030 -540 112 -54 195 -98 185 -98 -34 0 -472 77 -656 116 -400 83 -750
179 -1204 329 -874 289 -1446 426 -2055 490 -207 22 -672 31 -870 16 -431 -32
-812 -111 -1260 -260 -689 -230 -1147 -545 -1531 -1052 l-87 -116 66 -23 c37
-13 221 -81 408 -151 537 -201 704 -252 1064 -323 1006 -199 2091 -160 3490
125 238 48 349 78 685 181 460 140 690 193 900 204 113 6 398 -16 925 -72
1850 -196 3207 -543 4360 -1115 845 -419 3002 -1665 5236 -3025 2247 -1367
2549 -1559 4789 -3039 473 -313 911 -601 974 -642 62 -41 111 -76 109 -78 -2
-2 -260 50 -574 116 -313 66 -1037 214 -1609 329 -572 115 -1305 262 -1630
328 -949 193 -1487 289 -2095 376 -536 77 -658 89 -915 88 -351 0 -574 -25
-1295 -148 -212 -36 -466 -75 -565 -88 l-180 -22 -3 -191 -2 -191 175 -148
c205 -173 295 -239 500 -365 844 -520 1719 -815 2705 -911 214 -21 959 -18
1175 5 396 42 764 107 1110 198 640 167 749 190 1060 229 248 30 417 40 715
40 642 0 1234 -78 2225 -291 248 -54 579 -135 603 -148 17 -10 -58 -21 -318
-50 -380 -43 -769 -67 -1225 -76 -1191 -24 -1883 -117 -3930 -529 -1307 -264
-1835 -353 -2580 -436 -316 -35 -488 -64 -714 -120 -674 -167 -1302 -501
-1851 -986 -202 -178 -487 -477 -666 -699 -535 -663 -1025 -1525 -1531 -2698
-47 -108 -84 -199 -82 -201 5 -6 651 107 1006 174 1054 201 2043 457 2788 722
1014 361 1806 911 2409 1673 267 337 515 762 701 1200 38 88 86 187 108 220
52 78 185 210 265 264 145 97 134 95 842 212 1711 284 2683 419 3625 503 1143
103 1968 103 2685 0 376 -54 598 -107 1095 -263 1204 -378 2454 -809 4325
-1491 388 -141 1055 -384 1482 -540 427 -156 775 -287 773 -290 -3 -4 -39 -10
-82 -14 -146 -13 -688 -77 -903 -107 -573 -80 -1115 -192 -1429 -296 -896
-297 -1623 -939 -2067 -1824 -45 -92 -53 -114 -42 -124 7 -6 54 -37 103 -67
381 -234 754 -395 1145 -493 323 -82 581 -115 946 -122 621 -13 1186 75 1809
282 624 206 1082 423 2235 1059 600 332 671 369 860 454 276 124 543 215 770
261 199 41 278 44 875 38 582 -6 707 -11 1745 -72 1096 -64 1168 -66 2685
-100 2870 -64 4941 -105 9010 -181 1525 -28 1540 -28 2135 21 162 13 347 27
411 31 l115 7 -3 91 c-2 50 -6 132 -9 182 l-6 90 -226 29 c-125 15 -274 34
-332 42 -69 9 -300 17 -670 23 -686 11 -1064 30 -1610 80 -1402 130 -2822 402
-4440 850 -1551 430 -2745 915 -3772 1531 -767 460 -1426 983 -2001 1588 -234
245 -372 429 -457 607 -71 147 -80 199 -90 479 -57 1574 -547 3045 -1594 4784
-242 401 -758 1193 -929 1424 -76 102 -138 146 -370 261 -105 52 -211 106
-235 121 l-42 26 -9 -23 c-35 -91 -59 -143 -134 -295 -86 -175 -117 -267 -117
-348 0 -25 13 -139 30 -253 16 -114 64 -475 105 -802 42 -327 89 -689 106
-805 174 -1212 397 -2006 741 -2640 294 -540 647 -995 1207 -1556 312 -311
525 -506 1127 -1028 626 -544 773 -678 1177 -1062 428 -408 695 -596 1849
-1308 136 -84 250 -156 253 -161 3 -5 -63 9 -147 31 -1572 412 -3188 1000
-4808 1749 -540 250 -1392 673 -1757 872 -91 49 -167 131 -223 239 -60 116
-77 172 -121 404 -242 1280 -697 2321 -1454 3330 -263 350 -472 590 -820 944
-861 873 -1873 1635 -3635 2736 -375 234 -780 485 -783 485 -6 0 23 -274 43
-420 190 -1344 1142 -3997 1873 -5215 196 -328 481 -704 763 -1009 802 -869
1764 -1382 2899 -1546 234 -34 347 -76 665 -252 85 -46 200 -109 255 -138 162
-86 393 -217 850 -480 537 -309 760 -432 1040 -570 384 -189 555 -258 1255
-503 1207 -424 2060 -703 4910 -1607 333 -106 612 -196 620 -201 21 -12 -416
-11 -800 1 -2464 77 -4957 430 -8495 1201 -2223 485 -4257 1069 -6240 1792
-4456 1624 -8452 3889 -12030 6816 -216 177 -410 362 -527 501 -317 377 -468
786 -468 1264 0 311 31 491 209 1207 344 1385 508 2256 607 3224 21 204 24
589 5 750 -83 725 -359 1344 -879 1975 -98 118 -501 530 -519 530 -15 0 -321
-313 -431 -441 -699 -818 -1035 -1728 -982 -2663 16 -270 50 -493 136 -881
107 -480 236 -917 526 -1775 242 -718 304 -906 438 -1335 65 -209 160 -512
210 -674 89 -280 92 -295 74 -308 -10 -7 -22 -12 -26 -11 -4 2 -319 307 -700
679 -808 788 -966 941 -1423 1380 -720 691 -1154 1152 -1653 1751 -1700 2045
-2922 4436 -3671 7183 -254 934 -451 1896 -607 2975 -44 303 -47 339 -48 535
0 241 21 393 79 571 40 121 50 142 195 394 125 217 342 648 440 870 493 1126
785 2361 910 3850 51 617 72 1171 74 1985 1 702 5 660 -82 829 -54 106 -134
195 -204 230 -119 59 -296 20 -478 -104 -79 -55 -131 -114 -266 -300 -923
-1273 -1473 -2350 -1734 -3389 -230 -918 -246 -1670 -64 -2941 110 -774 234
-1390 580 -2890 341 -1474 473 -1995 1019 -4009 134 -498 243 -906 241 -908
-4 -4 -20 21 -296 467 -1284 2071 -2291 3999 -3046 5831 -1136 2758 -1763
5443 -1904 8144 -74 1436 -38 2784 106 3915 230 1813 754 3372 1617 4815 372
621 677 950 1067 1149 196 100 416 164 637 186 57 5 149 15 206 20 188 19 342
70 696 229 119 54 290 131 381 171 1251 551 2464 1449 3931 2910 218 217 272
276 298 328 77 149 110 311 76 369 -17 28 -154 122 -250 170 -70 36 -178 70
-240 78 -152 17 -1254 -213 -1863 -389 -1394 -404 -2425 -1029 -3167 -1921
-189 -228 -543 -698 -820 -1089 -494 -700 -1127 -1691 -1871 -2928 -262 -437
-382 -699 -684 -1503 -72 -192 -136 -354 -142 -360 -20 -19 1 152 63 510 33
193 183 1050 334 1905 317 1800 402 2285 520 2980 102 603 138 768 215 1003
211 639 574 1044 1130 1261 134 52 241 84 418 125 356 82 573 207 1149 657
374 293 581 474 872 759 1109 1089 1964 2459 2838 4555 188 448 690 1729 681
1734 -9 6 -1780 -896 -1933 -983 -99 -57 -376 -214 -615 -348 -807 -455 -1054
-596 -1315 -751 -1067 -636 -1722 -1153 -2219 -1747 -741 -888 -1110 -1908
-1105 -3053 0 -108 4 -249 8 -312 15 -242 -9 -333 -224 -855 -589 -1431 -1036
-3105 -1279 -4787 -225 -1553 -294 -2988 -267 -5515 22 -1976 22 -2076 6
-2003 -25 114 -162 943 -214 1290 -290 1945 -467 4038 -541 6410 -26 833 -31
1200 -37 2475 -19 4490 137 7479 533 10210 206 1423 522 2944 851 4095 580
2032 1626 3525 3204 4571 410 271 736 351 1084 265 156 -39 210 -62 685 -300
697 -348 1209 -572 1921 -841 525 -198 872 -288 1324 -340 193 -22 619 -31
830 -16 657 46 1321 214 2042 517 87 36 162 69 166 73 14 14 -255 324 -452
521 -263 263 -463 428 -748 618 -643 430 -1401 693 -2278 791 -293 33 -431 41
-795 48 -1462 25 -2666 -219 -3747 -760 -354 -178 -693 -390 -1063 -666 l-34
-26 34 49 c115 160 424 537 643 783 160 181 542 569 732 746 940 873 2010
1558 3223 2063 85 35 155 64 157 64 2 0 41 -46 87 -102 864 -1069 2000 -1739
3338 -1967 423 -72 777 -96 1300 -88 2151 35 3700 467 5048 1408 78 55 142
103 142 107 0 8 -70 53 -410 267 -2434 1532 -4829 2173 -7155 1914 -2116 -235
-4210 -1228 -6255 -2967 -91 -77 -166 -139 -168 -137 -3 3 199 384 319 601
639 1159 1426 2357 2280 3471 491 642 1633 2021 2138 2583 494 549 966 1000
1416 1352 263 206 835 600 1242 856 2721 1713 5961 2752 9683 3106 1078 103
1877 100 2629 -10 614 -89 1172 -253 1731 -506 618 -280 1126 -401 2305 -547
459 -57 574 -65 955 -65 281 0 386 3 505 18 462 55 844 163 1259 355 88 41 89
42 70 60 -10 10 -66 60 -124 112 -58 52 -168 152 -245 223 -261 241 -409 353
-705 531 -178 107 -556 294 -745 368 -1107 434 -2346 477 -4055 142 -572 -112
-915 -144 -1735 -160 -272 -6 -288 -5 -255 10 63 29 350 122 650 210 162 47
409 122 549 166 1156 363 2225 582 3246 663 407 33 602 38 1365 34 582 -2 794
0 885 10 685 75 1305 221 2210 523 395 131 553 193 727 286 549 293 1015 759
1379 1378 116 196 299 561 299 595 0 10 -194 134 -325 207 -555 310 -1111 487
-1715 544 -159 15 -577 15 -740 0 -1425 -131 -2658 -651 -3655 -1543 -169
-151 -353 -339 -536 -548 -411 -468 -821 -782 -1384 -1060 -749 -370 -1550
-589 -4314 -1181 -410 -88 -749 -158 -754 -156 -24 8 674 357 1073 537 300
136 1283 563 1700 740 964 409 1560 702 1940 955 443 295 805 678 1100 1165
107 176 282 532 363 740 101 256 269 792 253 807 -6 6 -459 -12 -681 -28 -951
-66 -1587 -229 -2220 -570 -755 -408 -1401 -1008 -2116 -1969 -288 -387 -782
-1100 -919 -1328 -129 -214 -169 -255 -317 -322 -65 -29 -266 -123 -448 -208
-949 -444 -1275 -585 -1691 -736 -275 -99 -472 -155 -996 -286 -2177 -545
-3511 -1012 -4894 -1715 -311 -158 -370 -183 -536 -231 -10 -3 -21 3 -27 15
-10 17 6 33 147 142 284 223 719 566 1292 1023 1530 1219 2276 1787 3105 2368
1729 1211 3372 2319 4585 3093 3063 1955 5708 3307 8289 4239 579 209 708 243
1026 267 257 20 492 -6 912 -100 887 -199 1559 -283 2268 -284 356 -1 518 8
815 43 748 90 1446 322 2080 690 304 177 459 300 950 760 107 101 257 237 333
303 75 67 134 124 130 128 -8 7 -557 248 -716 313 -239 99 -672 220 -967 270
-1041 177 -2106 29 -3340 -464 -226 -90 -399 -166 -745 -325 -548 -252 -888
-393 -2258 -935 -360 -143 -440 -171 -448 -159 -5 8 -9 16 -9 19 0 9 2868
1723 3855 2305 1034 609 979 579 1126 610 36 8 166 23 288 35 122 11 252 24
289 30 119 16 586 68 1087 120 1119 116 1612 183 2144 291 558 113 872 215
1256 409 877 441 1552 1157 2073 2196 157 313 220 542 194 700 -31 185 -157
312 -387 388 -279 93 -913 155 -1377 135 -974 -41 -1921 -361 -2777 -938 -558
-377 -1033 -826 -1561 -1476 -494 -608 -1031 -1061 -1835 -1547 -354 -214
-611 -353 -1430 -773 -308 -158 -645 -334 -750 -390 -104 -56 -221 -119 -260
-139 l-70 -38 110 107 c373 362 811 730 1214 1017 491 349 748 543 1006 757
521 434 905 847 1199 1291 140 210 184 286 284 486 218 435 312 750 487 1629
57 286 113 558 124 605 11 46 17 87 13 91 -7 6 -191 89 -342 153 l-75 32 -100
-84z m248 -200 c20 -8 37 -20 37 -27 0 -31 -204 -1030 -240 -1175 -135 -545
-305 -945 -584 -1370 -183 -279 -380 -515 -670 -806 -378 -377 -731 -665
-1421 -1156 -595 -424 -972 -745 -1541 -1313 -248 -247 -885 -918 -1038 -1094
-12 -13 168 102 399 256 738 491 1019 654 2015 1163 1073 549 1456 764 1935
1088 607 410 1037 803 1475 1347 316 392 660 745 1015 1042 789 659 1658 1058
2635 1212 386 61 789 70 1230 26 565 -57 791 -144 831 -319 32 -143 -74 -425
-331 -881 -225 -398 -459 -717 -744 -1012 -537 -557 -1173 -925 -1923 -1112
-572 -143 -1179 -235 -2393 -361 -600 -62 -888 -94 -1140 -125 -107 -13 -256
-29 -330 -35 -259 -21 -395 -46 -503 -94 -55 -24 -253 -139 -992 -574 -1146
-675 -4008 -2388 -4013 -2402 -3 -8 161 -356 173 -368 2 -3 215 79 472 181
257 103 666 265 908 361 688 272 1075 437 1580 671 863 400 1581 637 2260 745
951 151 1854 41 2712 -331 103 -45 205 -88 226 -97 20 -8 37 -18 37 -22 0 -8
-469 -446 -613 -572 -227 -200 -441 -343 -757 -507 -830 -429 -1789 -627
-2823 -582 -632 27 -1171 104 -1952 276 -431 95 -661 123 -920 111 -329 -16
-530 -61 -980 -221 -2211 -786 -4442 -1864 -6900 -3333 -1571 -939 -3081
-1930 -5550 -3641 -1443 -1000 -1915 -1355 -3820 -2871 -640 -509 -1044 -829
-1327 -1049 l-198 -154 22 -36 c150 -247 181 -292 197 -288 268 77 376 117
536 200 1438 747 2846 1247 5044 1793 233 58 492 125 575 149 460 133 983 344
1786 720 173 81 441 206 595 277 359 165 339 154 405 215 63 58 126 145 215
298 106 182 715 1056 958 1375 301 394 494 618 791 916 460 459 840 739 1341
986 611 301 1197 432 2183 489 112 6 206 9 209 5 10 -9 -109 -360 -187 -555
-280 -696 -650 -1213 -1165 -1626 -195 -157 -544 -364 -950 -565 -320 -158
-474 -227 -1170 -525 -2039 -873 -2505 -1096 -3300 -1578 -154 -93 -283 -173
-287 -176 -5 -4 94 3 220 15 125 12 299 28 386 34 228 17 252 21 1101 204
1496 321 2035 444 2680 612 1038 270 1662 522 2225 897 337 225 581 443 915
817 275 307 509 531 775 741 896 708 1990 1135 3210 1255 197 19 583 22 755 5
589 -58 1154 -243 1683 -551 l123 -72 -89 -171 c-220 -426 -417 -701 -722
-1008 -238 -239 -421 -380 -685 -527 -159 -88 -314 -152 -627 -257 -975 -329
-1668 -493 -2323 -550 -152 -13 -286 -15 -865 -9 -476 5 -755 3 -915 -5 -1207
-62 -2384 -283 -3684 -692 -124 -39 -384 -118 -577 -175 -668 -197 -880 -283
-1354 -553 -128 -73 -186 -111 -170 -111 14 0 90 5 170 10 317 21 532 30 915
40 1021 26 1303 51 1885 165 1078 212 1902 269 2655 184 701 -79 1320 -276
1905 -606 168 -95 441 -278 545 -364 91 -76 378 -337 383 -349 1 -3 -57 -28
-130 -54 -655 -236 -1265 -280 -2238 -161 -1154 141 -1704 270 -2279 534
-1153 530 -2391 700 -4126 565 -1742 -135 -3610 -478 -5198 -953 -1195 -359
-2221 -764 -3307 -1307 -967 -484 -1822 -1003 -2665 -1617 -677 -493 -1289
-1093 -2141 -2097 -262 -309 -988 -1184 -1170 -1410 -1176 -1463 -2144 -2918
-2959 -4445 -127 -238 -625 -1232 -625 -1247 0 -5 120 103 268 238 577 533
1023 908 1525 1283 1147 856 2306 1477 3462 1854 1701 555 3413 609 5169 163
1217 -310 2427 -844 3679 -1624 103 -64 187 -119 187 -122 0 -8 -240 -160
-395 -251 -1171 -686 -2588 -1024 -4430 -1056 -650 -11 -1134 39 -1670 172
-914 226 -1677 650 -2349 1305 -223 218 -374 388 -616 698 l-25 32 -190 -78
c-1134 -466 -2078 -1029 -2969 -1771 -247 -205 -399 -344 -665 -606 -466 -460
-827 -875 -1217 -1401 -208 -280 -332 -463 -692 -1017 l-314 -482 419 416
c431 428 607 591 839 777 925 738 2006 1194 3251 1371 670 96 1521 118 2158
55 1238 -121 2180 -533 2979 -1304 155 -150 339 -352 328 -361 -4 -4 -72 -32
-152 -62 -552 -211 -1044 -335 -1565 -394 -215 -25 -753 -25 -955 0 -483 59
-798 143 -1400 375 -706 271 -1245 511 -1925 856 -476 241 -601 280 -905 281
-185 0 -265 -13 -438 -71 -378 -125 -1066 -618 -1631 -1169 -1042 -1016 -1755
-2302 -2211 -3990 -445 -1648 -786 -3533 -994 -5505 -177 -1667 -267 -3280
-318 -5690 -17 -800 -17 -4014 0 -4655 56 -2152 148 -3668 318 -5270 154
-1453 404 -3082 609 -3963 35 -152 112 -488 170 -747 58 -258 108 -474 110
-480 8 -16 -4 1478 -21 2675 -29 1992 -21 3523 21 4400 106 2174 455 4131
1065 5970 154 467 286 821 524 1405 131 322 162 473 146 710 -12 168 -12 463
0 635 43 619 193 1169 464 1705 244 481 522 853 957 1280 561 550 1244 1014
2674 1815 209 117 560 315 780 440 507 288 609 342 1224 650 360 180 502 246
499 233 -9 -32 -257 -661 -370 -938 -812 -1991 -1540 -3258 -2492 -4335 -151
-171 -593 -613 -751 -751 -224 -196 -500 -419 -780 -631 -231 -174 -463 -311
-631 -371 -39 -14 -142 -42 -229 -62 -1002 -233 -1550 -850 -1774 -1995 -11
-58 -59 -332 -106 -610 -138 -815 -342 -1974 -817 -4660 l-93 -525 3 -265 c2
-146 6 -413 10 -595 l7 -330 64 155 c175 423 264 646 402 1014 280 745 415
1064 560 1329 75 138 613 1025 631 1042 6 6 2 -6 -10 -25 -129 -219 -397 -740
-517 -1005 -579 -1286 -922 -2629 -1074 -4210 -104 -1071 -116 -2409 -36
-3710 160 -2570 766 -5145 1830 -7775 800 -1979 1868 -4020 3307 -6318 312
-499 329 -524 441 -641 56 -59 145 -155 197 -213 52 -59 96 -105 98 -103 4 4
-161 632 -375 1420 -671 2479 -765 2847 -1102 4300 -464 2004 -613 2816 -706
3855 -139 1555 317 3033 1468 4755 246 367 505 722 574 785 69 63 187 122 256
128 52 4 53 4 99 -46 56 -59 103 -149 123 -234 34 -143 9 -1490 -41 -2243
-133 -2011 -567 -3601 -1359 -4980 -172 -300 -211 -394 -254 -616 -66 -343
-54 -575 70 -1374 585 -3766 1921 -6946 4033 -9599 567 -713 1071 -1258 1891
-2045 410 -393 472 -453 1454 -1411 425 -415 781 -755 790 -755 9 0 82 38 164
85 134 77 147 87 144 110 -11 68 -432 1389 -702 2200 -367 1104 -447 1363
-561 1824 -208 844 -231 1376 -83 1971 155 621 518 1245 1033 1773 l91 94 135
-139 c608 -620 965 -1321 1055 -2067 34 -289 30 -493 -21 -946 -98 -875 -263
-1725 -594 -3051 -178 -713 -206 -892 -197 -1264 6 -227 19 -332 68 -515 113
-426 388 -830 814 -1198 411 -354 1399 -1121 2085 -1619 2196 -1591 4587
-2979 7105 -4123 2811 -1278 5834 -2277 9045 -2990 2404 -534 4384 -881 6125
-1075 744 -82 1246 -124 2075 -170 328 -19 660 -27 1305 -35 561 -7 752 -12
825 -24 52 -8 98 -12 101 -8 7 8 51 183 47 187 -5 4 -876 283 -2063 660 -2323
738 -3424 1102 -4590 1518 -628 224 -974 393 -1950 957 -231 133 -519 297
-640 363 -121 66 -292 160 -380 208 -396 217 -501 258 -755 294 -1058 151
-1947 606 -2700 1381 -295 304 -579 663 -793 1002 -643 1018 -1543 3410 -1837
4882 -60 304 -66 345 -48 334 69 -41 771 -482 938 -589 1428 -918 2306 -1596
3075 -2376 341 -346 559 -596 810 -931 715 -952 1176 -1991 1395 -3139 55
-292 73 -364 114 -464 50 -123 118 -229 200 -310 63 -62 94 -82 286 -183 294
-154 1055 -534 1335 -666 1764 -833 3372 -1429 5110 -1893 l320 -86 235 -7
c129 -5 282 -9 340 -9 l105 -1 -275 183 c-257 171 -474 309 -1030 652 -762
470 -1074 701 -1510 1121 -297 286 -468 439 -1282 1147 -970 843 -1485 1389
-1881 1993 -311 474 -506 918 -667 1519 -148 552 -235 1052 -370 2115 -39 305
-89 688 -111 849 -37 264 -40 301 -29 349 10 47 126 292 148 314 14 14 284
-126 335 -174 68 -64 514 -729 834 -1243 925 -1488 1436 -2764 1627 -4060 45
-306 76 -669 76 -890 0 -231 33 -376 127 -557 100 -195 238 -376 469 -619 366
-383 719 -696 1155 -1024 1152 -866 2582 -1537 4389 -2058 1737 -502 3354
-819 4855 -951 549 -49 906 -66 1545 -75 525 -8 567 -10 779 -37 128 -16 215
-31 205 -35 -22 -8 -484 -45 -765 -60 -148 -8 -403 -7 -1050 5 -470 9 -1455
28 -2189 41 -4370 81 -8512 171 -9045 195 -257 12 -393 19 -1075 60 -1023 60
-1125 64 -1770 64 -684 1 -689 1 -973 -70 -409 -103 -710 -239 -1517 -686
-1008 -558 -1468 -784 -1985 -976 -660 -246 -1267 -362 -1889 -362 -577 0
-1083 104 -1585 326 -135 59 -373 183 -433 226 l-27 19 61 107 c481 849 1201
1402 2133 1640 477 122 996 205 1912 307 512 57 1033 125 1033 135 0 3 -125
50 -277 104 -271 96 -1404 508 -2793 1014 -1820 664 -3029 1081 -4248 1466
-166 53 -366 114 -443 136 -864 244 -1945 292 -3479 155 -900 -81 -1787 -201
-3285 -446 -878 -143 -1006 -166 -1078 -193 -163 -61 -345 -198 -468 -354 -72
-89 -115 -166 -169 -302 -24 -58 -80 -181 -125 -275 -355 -737 -870 -1352
-1518 -1813 -489 -349 -968 -578 -1702 -813 -796 -255 -1759 -487 -2760 -664
-143 -25 -268 -47 -277 -49 -10 -2 -18 -3 -18 -1 0 23 284 627 424 900 443
867 878 1501 1381 2014 512 522 992 845 1600 1076 348 132 680 206 1165 259
705 78 1269 173 2580 436 1262 253 1668 326 2250 404 575 77 992 108 1635 121
696 14 1261 63 1850 161 149 25 628 114 632 117 1 1 -137 39 -305 85 -169 45
-422 114 -562 153 -537 147 -1423 324 -1950 389 -335 41 -491 51 -840 57 -654
10 -1127 -46 -1692 -203 -718 -199 -1188 -271 -1828 -281 -456 -7 -719 11
-1105 77 -780 133 -1532 426 -2228 868 -153 98 -212 141 -380 285 l-128 109 3
52 3 51 95 13 c52 7 297 47 544 88 924 154 1176 168 1721 99 695 -88 1364
-204 2435 -422 311 -63 1022 -206 1580 -318 558 -112 1381 -281 1829 -375 448
-94 817 -167 821 -163 4 4 15 64 24 132 14 102 15 126 4 137 -7 7 -170 115
-363 241 -192 126 -736 484 -1207 796 -2009 1328 -2558 1675 -4858 3070 -1837
1115 -3460 2057 -4665 2707 -1368 739 -2869 1125 -5210 1340 -374 34 -440 36
-616 15 -228 -26 -374 -62 -859 -210 -334 -102 -446 -130 -750 -190 -1186
-232 -2112 -280 -2985 -154 -293 42 -597 110 -830 186 -162 53 -696 251 -708
263 -12 10 127 165 234 261 308 277 633 459 1092 614 834 281 1558 335 2462
184 450 -75 878 -188 1552 -410 356 -117 633 -199 868 -258 442 -110 983 -207
1485 -265 212 -25 1166 -116 1205 -116 11 1 -194 74 -455 164 -261 89 -551
193 -644 230 -392 157 -812 365 -1571 777 -995 540 -1475 766 -1995 939 -528
176 -906 244 -1515 275 -165 9 -374 22 -465 31 -1105 102 -2112 410 -3010 920
-833 472 -1445 1152 -1959 2174 -160 319 -182 398 -135 491 35 71 158 139 399
222 1076 369 2142 279 3235 -273 495 -251 997 -596 1495 -1029 155 -135 503
-478 659 -651 448 -494 845 -1054 1210 -1708 76 -136 164 -252 227 -298 28
-21 207 -109 398 -197 934 -429 2274 -1036 4326 -1960 605 -272 1135 -511
1177 -530 l77 -35 110 211 c61 116 111 213 111 216 -1 3 -76 53 -168 110 -92
58 -518 330 -947 606 -1099 707 -1575 1002 -2105 1305 -556 319 -909 558
-1291 876 -187 155 -606 572 -749 744 -567 684 -946 1437 -1176 2337 -30 117
-54 217 -54 223 0 12 213 13 515 0 238 -10 380 -31 483 -73 62 -25 467 -271
870 -530 556 -356 930 -644 1237 -951 225 -225 379 -416 582 -721 265 -400
448 -739 906 -1685 264 -546 568 -1138 629 -1227 78 -115 161 -183 738 -603
1293 -941 2280 -1464 3296 -1745 122 -34 646 -157 650 -152 4 4 -601 674
-1661 1837 -940 1031 -1585 1767 -2139 2439 -1652 2004 -3115 4159 -4358 6421
-676 1228 -1355 2636 -1893 3920 -174 417 -248 550 -383 692 -117 122 -260
212 -445 277 -48 17 -181 51 -295 76 -426 95 -728 177 -1072 293 -1037 351
-1930 867 -2710 1568 -154 138 -491 480 -626 634 -607 694 -895 1355 -949
2174 l-6 99 228 -6 c423 -12 756 -55 1131 -148 1214 -298 2233 -1049 3214
-2369 304 -410 549 -782 1018 -1548 51 -84 94 -151 96 -149 2 2 -19 113 -47
248 -27 134 -68 338 -89 452 -22 115 -47 239 -56 275 -27 108 -181 620 -349
1157 -354 1131 -486 1612 -615 2240 -359 1747 -1049 3313 -2295 5210 -319 486
-967 1399 -1224 1725 -507 644 -1112 1055 -1861 1265 -346 97 -549 158 -724
219 -1221 425 -2368 1123 -3646 2218 -392 336 -781 693 -1264 1162 -218 212
-274 271 -293 313 -20 44 -73 245 -73 279 0 20 257 116 324 121 65 5 185 -11
574 -77 1521 -260 2768 -704 3757 -1338 1053 -676 1882 -1616 2430 -2757 48
-99 99 -205 114 -235 23 -47 609 -857 2882 -3982 239 -329 435 -593 437 -588
7 19 -75 849 -213 2155 -202 1912 -274 2712 -329 3665 -62 1055 -75 1690 -86
4285 -10 2356 -19 2878 -66 3795 -54 1073 -189 1761 -720 3680 -242 874 -413
1389 -687 2067 -456 1130 -1069 2257 -1739 3199 -156 220 -337 378 -563 489
-151 74 -212 90 -390 105 -1240 99 -2256 507 -3135 1256 -142 121 -465 443
-586 584 -248 288 -538 678 -866 1160 -334 492 -1222 1891 -1265 1994 -19 44
-60 157 -93 253 -44 128 -56 173 -45 173 35 0 483 -65 695 -101 1527 -257
2710 -710 3703 -1418 508 -362 987 -820 1410 -1348 214 -266 271 -377 327
-629 118 -526 281 -969 560 -1519 190 -373 344 -637 815 -1395 621 -998 752
-1239 1082 -1985 163 -367 312 -727 560 -1350 118 -297 303 -765 413 -1040
109 -275 244 -630 301 -790 56 -159 105 -294 109 -298 6 -7 337 57 348 68 7 7
-278 2095 -389 2850 -102 694 -158 1036 -185 1125 -44 145 -126 297 -326 598
-295 443 -442 680 -621 999 -836 1488 -1174 2899 -1021 4263 33 297 84 575
161 875 51 202 82 296 185 557 57 148 73 178 83 167 38 -41 274 -331 338 -415
94 -126 135 -193 251 -423 345 -682 604 -1442 775 -2281 169 -831 260 -1722
306 -2995 33 -923 117 -1689 265 -2426 38 -188 174 -785 187 -819 8 -21 117
562 363 1935 213 1191 351 1903 495 2555 580 2617 1552 5147 2963 7710 808
1469 1791 2989 2922 4520 589 797 892 1268 1120 1744 246 512 333 880 334
1416 0 518 -75 952 -310 1767 -281 979 -395 1640 -565 3273 -64 611 -60 826
20 1155 92 375 273 753 569 1185 257 377 481 640 587 690 134 64 276 -9 496
-256 526 -593 852 -1225 994 -1928 122 -609 104 -1211 -57 -1906 -110 -475
-252 -901 -620 -1860 -105 -272 -216 -565 -248 -650 -75 -200 -722 -2039 -727
-2065 -3 -17 18 -30 149 -90 84 -38 155 -70 158 -70 10 0 350 355 795 830 557
596 887 937 1121 1160 363 347 396 376 1244 1086 2178 1826 4301 3549 6225
5053 537 420 615 486 816 686 249 249 402 450 527 696 157 311 223 594 223
964 0 304 -11 375 -150 995 -211 942 -288 1486 -298 2105 -12 774 80 1289 359
1995 284 718 594 1234 1020 1695 103 112 317 320 337 328 17 6 234 -480 335
-750 409 -1101 491 -2210 250 -3393 -202 -989 -617 -2029 -1356 -3393 -109
-203 -398 -725 -431 -782 -25 -42 -51 -62 228 176 281 240 458 387 780 649
492 399 704 580 964 824 773 726 1203 1474 1340 2332 28 174 39 297 51 579 43
1020 132 1737 301 2401 208 820 517 1488 964 2084 211 281 410 498 979 1064
l305 305 41 -89 c332 -722 417 -1465 264 -2305 -225 -1234 -775 -2475 -1574
-3550 -339 -456 -640 -800 -1124 -1285 -186 -187 -350 -362 -413 -440 -115
-143 -275 -379 -374 -550 -64 -112 -299 -578 -294 -583 5 -6 763 392 2100
1103 2085 1109 2822 1484 3955 2012 493 230 750 365 1098 575 614 372 1216
824 1854 1391 361 321 917 855 1263 1214 277 286 338 369 486 652 159 305 197
369 708 1170 824 1291 1205 1873 1593 2433 272 393 339 461 848 853 113 87
220 171 238 186 32 29 33 29 70 13 20 -9 54 -23 75 -32z m-25779 -47617 c59
-15 210 -89 255 -124 24 -18 24 -21 12 -62 -39 -134 -51 -148 -414 -502 -934
-913 -1595 -1471 -2335 -1971 -454 -307 -993 -609 -1422 -795 -80 -35 -239
-106 -355 -159 -410 -185 -535 -224 -767 -242 -317 -23 -543 -80 -790 -199
-323 -155 -609 -409 -883 -786 -133 -183 -132 -180 45 100 619 981 1213 1829
1714 2450 415 513 924 937 1536 1277 661 368 1498 658 2520 872 196 41 769
150 815 155 6 0 37 -6 69 -14z"/>
<path d="M19516 89163 l-79 -4 6 -517 c4 -284 7 -1046 7 -1693 l0 -1176 108 5
c59 2 108 5 109 6 0 0 13 100 27 221 14 121 41 353 61 515 105 887 107 1136
15 2155 -15 176 -31 359 -35 408 l-7 87 -66 -2 c-37 -1 -103 -4 -146 -5z"/>
<path d="M22587 77394 c-15 -108 -26 -198 -24 -201 4 -4 3031 -318 3132 -325
l49 -3 24 123 c15 71 21 126 16 131 -8 6 -3128 472 -3159 471 -6 0 -23 -86
-38 -196z"/>
<path d="M22330 76568 l0 -163 1907 -197 c1049 -109 1909 -195 1912 -193 7 7
42 307 37 313 -3 2 -848 91 -1878 198 -1030 106 -1897 196 -1925 199 l-53 6 0
-163z"/>
<path d="M21731 76173 c-42 -165 -73 -325 -65 -332 5 -4 545 -129 1199 -276
655 -147 1195 -269 1201 -272 10 -3 98 356 89 365 -4 4 -2394 552 -2407 552
-4 0 -12 -17 -17 -37z"/>
<path d="M2935 71554 c-60 -74 -111 -138 -112 -142 -2 -10 1928 -1627 1943
-1627 7 0 71 67 142 149 l130 148 -32 27 c-110 95 -1947 1581 -1953 1581 -4
-1 -57 -62 -118 -136z"/>
<path d="M16215 61390 c-372 -268 -538 -404 -754 -615 -317 -310 -541 -600
-731 -945 -185 -335 -330 -752 -395 -1130 -25 -147 -83 -612 -75 -603 7 8
2231 3467 2244 3491 4 6 6 12 4 12 -2 -1 -133 -95 -293 -210z m-517 -682 c-8
-13 -250 -389 -538 -836 -287 -447 -525 -811 -527 -808 -15 15 116 355 208
540 175 352 375 629 683 943 98 101 181 183 184 183 2 0 -2 -10 -10 -22z"/>
<path d="M17180 59754 c-514 -591 -936 -1079 -938 -1084 -2 -5 70 -70 159
-144 128 -107 166 -133 175 -124 20 22 1828 2132 1842 2149 10 14 -8 34 -138
145 -83 71 -154 130 -158 132 -4 1 -428 -482 -942 -1074z m890 703 c0 -2 -10
-12 -22 -23 l-23 -19 19 23 c18 21 26 27 26 19z m-50 -60 c0 -2 -15 -16 -32
-33 l-33 -29 29 33 c28 30 36 37 36 29z m-731 -849 c-808 -942 -748 -873 -756
-865 -3 4 3 17 14 30 11 12 331 381 712 820 381 438 694 797 697 797 2 0 -298
-352 -667 -782z"/>
<path d="M16995 40128 c-9 -26 -596 -2721 -593 -2723 2 -2 92 -16 202 -32 131
-19 199 -25 202 -19 2 6 124 619 272 1361 l269 1350 -146 31 c-81 17 -159 34
-174 38 -18 4 -29 2 -32 -6z"/>
<path d="M17439 38513 c-254 -1136 -293 -1319 -280 -1325 33 -16 335 -78 342
-71 4 5 138 579 299 1276 161 697 294 1276 297 1285 3 15 -26 29 -174 85 -98
37 -180 67 -183 67 -3 0 -138 -593 -301 -1317z"/>
<path d="M9683 26796 l-82 -165 252 -129 c139 -72 693 -350 1233 -620 l980
-490 88 175 c48 96 86 177 84 179 -8 7 -2458 1214 -2465 1214 -5 0 -45 -74
-90 -164z"/>
<path d="M42555 17749 c-104 -82 -191 -153 -193 -158 -3 -9 2711 -2894 2726
-2898 4 -1 40 28 80 65 l72 67 -1239 1535 c-682 844 -1243 1535 -1248 1537 -4
1 -93 -66 -198 -148z m482 -521 c259 -321 351 -438 321 -408 -3 3 -161 171
-352 373 l-348 369 23 24 c12 13 28 24 35 24 7 0 152 -172 321 -382z"/>
<path d="M41755 15654 c205 -418 288 -569 448 -808 174 -260 329 -449 552
-671 400 -401 849 -697 1411 -934 125 -52 695 -264 699 -259 3 4 -3245 2982
-3257 2986 -4 2 62 -139 147 -314z m1390 -1369 c396 -362 727 -664 735 -671
31 -29 -10 -11 -130 57 -541 308 -980 712 -1343 1237 -43 61 -77 114 -77 118
0 5 21 -12 48 -37 26 -26 371 -342 767 -704z"/>
<path d="M74490 103559 c-74 -4 -159 -10 -189 -14 l-54 -7 7 -121 c36 -653
207 -1282 477 -1757 194 -341 350 -526 769 -914 507 -470 969 -862 2045 -1736
341 -277 715 -582 830 -677 116 -96 292 -240 392 -321 100 -81 180 -148 179
-150 -4 -4 -526 209 -821 336 -569 244 -1160 522 -1665 782 -332 172 -486 257
-1065 585 -559 317 -767 433 -1035 577 -1502 808 -2617 1199 -3830 1345 -108
12 -215 17 -420 16 -351 -2 -927 -17 -935 -25 -3 -3 8 -30 26 -59 17 -30 81
-144 141 -254 132 -240 131 -238 298 -440 238 -288 524 -552 915 -845 912
-684 1888 -1088 2910 -1204 343 -39 712 -44 1185 -16 493 30 1047 -51 1590
-230 509 -168 976 -391 1785 -854 287 -164 298 -171 260 -174 -22 -1 -452 38
-955 88 -2493 247 -3555 350 -3816 371 -104 8 -202 8 -375 0 -312 -15 -444
-14 -563 4 -102 15 -129 25 -422 153 -592 260 -1300 383 -1964 343 -781 -47
-1520 -256 -2315 -654 -690 -345 -1344 -796 -1980 -1366 -212 -190 -568 -549
-654 -661 -324 -419 -199 -741 327 -840 67 -12 351 -36 632 -52 284 -16 1470
-16 1765 1 421 23 781 61 1108 117 1507 254 2640 917 3469 2031 55 73 114 144
131 157 88 68 249 123 439 153 97 15 193 17 688 17 561 1 765 -6 1210 -40
1911 -143 3836 -623 5820 -1452 4667 -1949 8558 -4654 11592 -8058 742 -833
1338 -1586 2100 -2654 584 -818 719 -1013 704 -1007 -61 24 -262 175 -606 456
-1335 1091 -2446 1896 -3635 2636 -667 415 -1252 742 -1955 1094 -695 347
-1230 583 -1955 861 -357 137 -536 228 -1014 513 -384 228 -535 313 -751 419
-113 55 -401 198 -640 317 -463 231 -649 315 -875 393 -418 147 -666 174
-1475 165 -789 -9 -1453 -80 -2175 -232 -883 -186 -1516 -400 -3124 -1055
-382 -155 -803 -324 -935 -375 l-241 -93 -3 -201 c-1 -111 0 -201 3 -201 16 0
635 -173 1290 -360 402 -115 879 -249 1060 -299 1256 -342 2148 -513 3065
-587 268 -21 941 -30 1211 -15 1268 70 2388 402 3416 1013 91 54 151 83 195
93 124 29 306 14 478 -41 120 -38 1415 -655 2170 -1035 1253 -630 1963 -1047
2845 -1670 361 -255 938 -670 959 -690 15 -14 -6 -10 -100 17 -993 290 -1686
481 -2114 585 -667 162 -787 178 -1510 204 -625 22 -743 35 -1105 115 -512
114 -847 160 -1327 181 -958 44 -1928 -143 -2894 -556 -755 -323 -1595 -845
-2364 -1470 -155 -126 -400 -312 -630 -479 -115 -84 -122 -91 -104 -104 73
-53 509 -316 551 -332 111 -42 207 -53 383 -47 448 17 1301 103 1915 193 1829
269 3316 822 4562 1695 193 136 279 186 404 239 138 57 268 90 379 96 90 5
123 0 670 -105 1883 -362 2668 -568 3672 -967 1708 -678 2987 -1609 3858
-2809 130 -179 228 -332 427 -665 3615 -6048 5846 -12464 6697 -19265 70 -555
117 -988 122 -1120 l5 -120 -39 45 c-91 104 -2134 2632 -2227 2756 -99 132
-150 242 -170 369 -8 44 -23 141 -35 215 -150 951 -554 1880 -1151 2653 -371
479 -820 914 -1369 1326 -696 522 -1511 973 -3380 1869 -355 170 -781 376
-948 457 l-302 148 -28 -24 c-15 -14 -77 -71 -138 -127 l-110 -101 7 -63 c4
-35 10 -153 13 -263 13 -399 29 -471 175 -809 60 -138 196 -451 301 -696 530
-1228 835 -1827 1245 -2445 892 -1346 2016 -2204 3370 -2575 412 -112 898
-183 1345 -196 107 -3 227 -10 265 -16 84 -13 190 -49 265 -91 93 -52 572
-537 900 -912 1150 -1313 1844 -2684 2079 -4105 79 -475 96 -766 88 -1510 -18
-1607 -129 -3163 -417 -5835 -229 -2126 -245 -2262 -291 -2545 -75 -463 -162
-848 -447 -1995 -109 -440 -203 -820 -208 -845 -8 -41 -12 -45 -39 -45 -29 0
-30 2 -42 65 -6 36 -72 394 -147 795 -248 1339 -259 1403 -253 1535 4 85 14
151 40 255 104 415 157 841 157 1265 0 1869 -1009 3636 -2610 4572 -221 129
-298 156 -795 275 -23 5 -23 13 -5 -617 41 -1395 165 -2269 439 -3100 175
-530 490 -1163 779 -1565 190 -265 356 -425 592 -570 289 -179 528 -412 692
-678 65 -103 166 -313 211 -437 108 -293 197 -709 286 -1335 178 -1246 42
-2497 -433 -3985 -177 -557 -421 -1193 -761 -1986 -166 -385 -200 -478 -315
-844 -49 -157 -103 -325 -120 -374 -16 -50 -30 -93 -30 -98 0 -14 300 -9 359
7 189 50 309 233 721 1095 1349 2821 2312 5673 2901 8590 87 431 160 830 239
1300 128 772 222 1184 367 1620 398 1197 1100 1966 2253 2469 729 318 1277
759 1899 1531 218 270 399 517 820 1119 341 488 514 727 686 946 173 220 175
223 175 261 0 50 -34 132 -98 233 -78 125 -159 213 -225 246 -53 25 -55 26
-168 15 -400 -36 -738 -110 -1174 -255 -1500 -499 -2516 -1185 -3130 -2115
-410 -621 -627 -1290 -699 -2155 -8 -96 -21 -192 -31 -220 -25 -73 -99 -201
-104 -179 -5 27 17 274 45 494 159 1268 537 2463 1407 4445 289 659 277 634
321 677 64 62 180 112 387 168 1127 303 2032 875 2750 1740 75 91 333 428 535
700 504 677 895 1232 1834 2600 255 371 499 726 543 789 136 195 167 279 167
461 0 90 -4 112 -24 155 -13 28 -39 64 -57 82 -112 105 -363 153 -550 103
-124 -32 -602 -184 -804 -255 -406 -143 -703 -269 -1130 -481 -1846 -914
-2997 -2069 -3623 -3635 -144 -361 -265 -781 -372 -1294 -157 -751 -368 -1401
-937 -2890 -134 -351 -284 -750 -334 -885 -49 -135 -95 -258 -103 -275 l-13
-29 -16 49 c-15 44 -17 144 -21 870 -5 968 -24 1598 -71 2435 -114 2001 -380
4168 -761 6180 -36 190 -76 406 -89 480 -173 1001 14 1970 566 2937 88 154
199 322 590 898 561 826 1034 1593 1433 2325 168 307 428 832 484 977 88 225
148 459 189 728 25 170 26 732 0 915 -44 320 -114 620 -211 915 -66 199 -206
555 -219 555 -16 0 -287 -116 -407 -173 -276 -134 -562 -314 -800 -503 -173
-137 -505 -469 -643 -643 -239 -300 -423 -595 -617 -986 -315 -637 -508 -1276
-619 -2052 -85 -591 -107 -1032 -96 -1888 9 -719 8 -815 -10 -1000 -22 -215
-67 -527 -76 -518 -12 12 -336 880 -492 1318 -379 1063 -714 2102 -987 3060
-295 1038 -451 1919 -511 2895 -16 252 -16 921 0 1165 31 499 102 1053 166
1304 89 353 229 626 398 776 34 30 118 100 186 156 1096 899 1964 2088 2681
3669 243 536 502 1196 756 1930 l67 195 0 120 c0 101 -5 134 -27 210 -35 115
-93 223 -135 252 -60 41 -181 42 -347 3 -120 -28 -176 -59 -399 -219 -1797
-1292 -2854 -2698 -3270 -4352 -105 -415 -142 -654 -200 -1289 -43 -465 -100
-1031 -161 -1590 -72 -664 -273 -2412 -277 -2417 -6 -5 -95 163 -220 412 -632
1266 -1101 2759 -1371 4370 -53 313 -116 763 -116 824 0 69 47 210 107 321
127 232 382 640 776 1242 457 697 597 924 791 1279 582 1069 855 2198 917
3799 20 517 -10 2404 -41 2614 -16 104 -41 168 -179 461 -71 149 -143 308
-161 354 l-34 84 -44 -49 c-1752 -1927 -2636 -3200 -3189 -4589 -319 -799
-458 -1503 -440 -2220 17 -657 147 -1273 409 -1930 181 -454 247 -699 428
-1605 65 -327 118 -595 117 -596 -1 -1 -11 -4 -22 -8 -23 -7 -37 15 -428 699
-1650 2885 -3255 5204 -5055 7303 -658 767 -1128 1271 -1976 2117 -693 692
-750 755 -878 960 -269 437 -465 1016 -517 1530 -6 55 -15 213 -21 350 -57
1342 -194 2293 -454 3135 -420 1364 -1079 2333 -2001 2944 -253 168 -472 286
-743 400 -171 72 -423 159 -433 149 -4 -4 -32 -80 -62 -168 -222 -651 -275
-1320 -166 -2095 41 -293 140 -744 215 -980 162 -513 452 -1020 895 -1565 190
-234 308 -365 974 -1080 464 -498 706 -801 1285 -1610 134 -187 263 -366 287
-397 l43 -57 -36 -10 c-21 -6 -42 -7 -48 -4 -6 4 -65 50 -131 103 -2133 1712
-4758 3267 -8225 4872 -431 200 -614 291 -770 383 -613 363 -1055 816 -1329
1363 -122 242 -178 400 -272 767 -117 455 -223 786 -364 1146 -421 1070 -1030
1925 -1827 2564 -666 533 -1351 808 -2128 855 -181 11 -230 11 -430 -1z m410
-199 c700 -43 1299 -271 1905 -726 490 -367 939 -854 1286 -1394 433 -674 726
-1396 988 -2435 109 -434 329 -881 600 -1217 39 -49 68 -88 65 -88 -5 0 -399
310 -729 574 -82 66 -276 224 -430 351 -154 127 -545 447 -870 710 -943 765
-1392 1143 -1860 1565 -437 394 -586 543 -731 732 -362 472 -595 1126 -659
1850 l-7 77 88 4 c49 1 112 4 139 5 28 1 124 -3 215 -8z m-4555 -2060 c522
-37 1168 -176 1790 -384 899 -302 1608 -645 3210 -1556 611 -348 854 -478
1340 -720 930 -462 1866 -861 3050 -1300 l250 -93 75 -67 c264 -234 550 -430
881 -604 68 -35 284 -139 479 -229 3530 -1635 6053 -3120 8202 -4829 216 -172
253 -197 298 -207 80 -17 189 5 333 68 l48 21 22 -53 c71 -173 212 -432 325
-597 117 -171 190 -249 736 -791 1026 -1017 1775 -1837 2612 -2859 1605 -1960
3002 -4024 4521 -6680 198 -345 439 -759 448 -768 7 -7 385 90 385 99 0 5 -16
80 -36 167 -20 86 -82 392 -139 680 -160 804 -237 1093 -406 1525 -276 705
-397 1257 -415 1897 -22 750 138 1479 523 2383 91 213 306 648 426 862 457
813 1046 1620 1917 2625 285 330 531 605 540 605 10 0 155 -290 193 -387 52
-130 55 -153 74 -738 22 -682 25 -1903 5 -2230 -81 -1342 -308 -2310 -750
-3205 -211 -427 -390 -727 -895 -1495 -315 -479 -482 -742 -657 -1035 -283
-473 -305 -551 -260 -896 277 -2086 892 -4039 1762 -5589 184 -329 253 -441
260 -423 4 10 14 90 23 178 30 295 195 1740 200 1750 2 6 1 -53 -3 -130 -10
-213 -6 -886 7 -1100 51 -830 169 -1584 377 -2419 242 -964 789 -2672 1309
-4086 197 -535 605 -1593 611 -1587 2 2 17 124 33 273 17 149 50 412 75 585
70 487 79 589 74 924 -12 1078 0 1613 48 2075 95 922 325 1733 688 2435 359
692 807 1226 1356 1615 199 141 489 305 701 395 l80 35 16 -38 c112 -267 244
-727 292 -1017 42 -256 46 -307 46 -615 0 -325 -5 -379 -55 -630 -68 -338
-174 -599 -488 -1195 -463 -880 -964 -1691 -1833 -2965 -327 -478 -531 -861
-692 -1296 -235 -634 -320 -1296 -251 -1964 18 -183 40 -318 109 -678 576
-3022 868 -6111 854 -9027 -2 -357 1 -495 10 -540 26 -124 104 -252 253 -418
l43 -48 69 198 c97 280 224 624 403 1093 379 992 492 1297 630 1705 183 543
322 1043 423 1525 140 667 296 1135 546 1640 123 250 223 426 359 630 656 991
1597 1776 2935 2445 587 294 1023 464 1765 690 214 66 222 67 305 62 91 -5
181 -33 218 -67 19 -18 22 -31 22 -98 -1 -144 7 -131 -574 -977 -1220 -1775
-1636 -2360 -2225 -3130 -229 -300 -343 -436 -521 -618 -628 -647 -1423 -1110
-2314 -1348 -83 -22 -180 -49 -215 -60 -143 -45 -301 -143 -360 -224 -48 -67
-571 -1266 -799 -1835 -565 -1409 -864 -2532 -966 -3635 -20 -209 -34 -479
-41 -795 l-6 -255 111 205 c61 113 159 276 216 362 198 298 219 352 240 617
142 1787 1056 2993 2874 3791 716 314 1387 509 1922 558 l88 8 33 -36 c49 -52
90 -107 131 -177 l36 -62 -117 -149 c-173 -220 -340 -449 -723 -997 -688 -982
-1027 -1403 -1435 -1778 -370 -341 -712 -567 -1150 -760 -320 -142 -522 -249
-758 -403 -655 -428 -1128 -991 -1452 -1728 -237 -539 -383 -1095 -550 -2096
-219 -1309 -459 -2412 -785 -3605 -590 -2158 -1371 -4235 -2390 -6355 -257
-536 -352 -707 -463 -836 -32 -36 -107 -75 -107 -54 0 12 134 433 181 565 23
66 119 302 214 525 312 734 509 1241 685 1768 422 1263 608 2382 570 3434 -14
394 -38 626 -111 1088 -132 839 -269 1265 -529 1654 -184 273 -393 471 -720
679 -153 97 -247 176 -351 292 -136 153 -248 311 -394 560 -592 1010 -859
2047 -945 3675 -13 251 -33 880 -28 885 10 10 282 -67 338 -95 102 -51 276
-157 435 -264 920 -619 1621 -1546 1980 -2621 313 -937 348 -1886 105 -2855
-25 -99 -33 -154 -37 -265 -5 -136 -4 -149 46 -432 116 -660 392 -2146 400
-2155 7 -8 373 -40 379 -33 2 2 29 111 59 242 30 131 130 540 223 908 342
1361 432 1812 515 2585 13 129 70 649 125 1154 367 3370 478 4844 497 6596 7
724 -6 992 -73 1445 -257 1739 -1205 3433 -2805 5011 -242 238 -319 287 -539
346 -58 15 -130 22 -314 29 -632 24 -1110 106 -1641 284 -457 152 -817 329
-1225 600 -748 499 -1415 1227 -1958 2137 -334 561 -582 1072 -1067 2198 -84
195 -199 461 -255 590 -129 295 -137 333 -154 685 -7 143 -10 265 -7 271 3 5
27 29 52 52 l46 42 324 -159 c178 -87 563 -272 854 -411 1239 -593 2095 -1040
2630 -1373 1637 -1019 2618 -2269 3010 -3837 47 -187 81 -359 115 -580 16
-103 37 -210 46 -237 27 -79 104 -221 168 -307 68 -92 649 -815 1375 -1711
271 -335 667 -825 880 -1087 l386 -476 3 41 c1 23 -1 215 -7 427 -10 417 -25
579 -137 1460 -763 6038 -2621 11794 -5567 17250 -387 717 -945 1692 -1289
2254 -844 1377 -2138 2425 -3953 3201 -784 335 -1593 587 -2610 814 -694 154
-1933 391 -2048 391 -172 0 -372 -50 -565 -141 -132 -62 -192 -98 -387 -234
-919 -642 -1946 -1098 -3152 -1399 -822 -205 -1697 -338 -2800 -426 -614 -48
-640 -45 -867 98 l-126 79 168 126 c92 69 235 180 317 247 633 515 1300 955
1915 1264 1487 749 2939 935 4497 576 354 -82 555 -103 1168 -125 619 -22 755
-36 1093 -111 555 -123 1105 -271 2282 -613 322 -93 781 -224 1020 -291 239
-66 444 -124 455 -127 11 -3 -131 99 -315 227 -369 256 -477 333 -1000 710
-1366 985 -1919 1328 -3215 1992 -604 309 -2305 1131 -2455 1186 -130 47 -256
67 -430 67 -204 0 -253 -13 -424 -115 -1024 -609 -2093 -928 -3351 -1001 -253
-15 -920 -6 -1180 15 -781 65 -1521 195 -2475 437 -391 99 -712 188 -1645 454
-451 129 -885 251 -965 273 l-145 39 -3 50 -3 49 513 206 c282 114 720 290
973 393 1112 450 1797 679 2510 839 607 136 1224 220 1885 256 239 13 867 13
1083 0 349 -21 637 -98 1047 -277 261 -114 1445 -712 1650 -834 781 -462 914
-532 1290 -674 2466 -933 4849 -2385 7525 -4584 434 -357 640 -495 907 -605
105 -44 390 -147 394 -143 8 7 -1448 2045 -1716 2402 -1475 1963 -3145 3682
-5080 5231 -2007 1607 -4291 3004 -6823 4175 -536 248 -1100 494 -1572 684
-2303 930 -4583 1397 -6815 1395 -704 -1 -941 -33 -1170 -157 -102 -55 -140
-92 -263 -255 -63 -84 -152 -198 -198 -253 -114 -137 -449 -471 -589 -587
-539 -446 -1117 -745 -1841 -953 -452 -130 -972 -218 -1539 -260 -708 -53
-2073 -39 -2550 26 -272 37 -417 136 -394 269 10 54 68 168 126 245 70 93 503
526 698 697 1595 1405 3361 2090 4877 1892 437 -57 846 -177 1259 -368 248
-115 396 -132 926 -105 163 8 255 8 352 0 206 -18 1206 -114 2086 -201 443
-44 1215 -120 1715 -169 l910 -89 440 -7 c242 -4 438 -5 435 -2 -9 9 -939 546
-1180 682 -913 513 -1546 774 -2195 904 -345 70 -748 100 -1070 81 -503 -29
-845 -23 -1195 21 -1142 143 -2209 646 -3195 1504 -276 241 -566 572 -680 779
-37 65 -65 120 -63 122 4 4 431 20 588 22 58 1 168 -3 245 -8z m16534 -2142
c536 -214 996 -521 1401 -935 475 -484 838 -1080 1128 -1848 360 -956 539
-2013 602 -3545 6 -146 18 -326 26 -400 19 -171 71 -434 123 -615 22 -77 38
-141 36 -143 -3 -4 -86 109 -375 513 -592 827 -751 1021 -1445 1765 -529 567
-703 766 -928 1065 -405 537 -624 985 -766 1565 -144 589 -200 1078 -180 1557
9 212 29 379 70 589 44 226 121 494 141 494 6 0 81 -28 167 -62z m19025
-14360 c8 -13 27 -59 42 -103 21 -62 27 -99 27 -165 1 -83 -2 -93 -107 -390
-341 -965 -624 -1650 -952 -2300 -669 -1328 -1443 -2316 -2460 -3143 -154
-124 -205 -179 -287 -302 -139 -210 -240 -469 -302 -773 -15 -70 -29 -129 -32
-132 -2 -3 -2 11 1 30 13 76 111 1044 161 1590 19 212 42 437 50 500 253 1897
1240 3423 3130 4842 389 292 453 329 600 357 87 16 113 13 129 -11z"/>
<path d="M68716 96944 c-813 -238 -1480 -435 -1483 -438 -4 -4 168 -306 187
-329 6 -7 2867 857 2879 869 5 5 -88 317 -98 325 -3 3 -671 -189 -1485 -427z"/>
<path d="M81955 90480 c-193 -13 -427 -37 -635 -65 -245 -34 -989 -159 -965
-163 144 -21 4960 -670 4962 -668 5 5 -630 344 -767 410 -535 255 -1093 411
-1692 471 -184 19 -708 27 -903 15z m835 -210 c450 -44 830 -129 1225 -272
101 -37 155 -63 109 -53 -10 3 -523 72 -1139 155 -616 82 -1133 154 -1150 159
l-30 9 40 2 c22 2 90 6 150 10 141 10 659 4 795 -10z"/>
<path d="M82035 88534 c-1039 -12 -1970 -23 -2067 -23 l-178 -1 0 -197 0 -196
768 6 c422 4 1405 10 2185 14 l1417 6 0 209 0 208 -117 -1 c-65 -1 -968 -12
-2008 -25z m1925 -184 c0 -6 -86 -9 -242 -8 l-243 2 230 6 c127 3 236 7 243 8
6 1 12 -2 12 -8z m-642 -7 c-10 -2 -28 -2 -40 0 -13 2 -5 4 17 4 22 1 32 -1
23 -4z"/>
<path d="M100855 85140 c-290 -1076 -504 -1884 -499 -1889 17 -15 397 -122
404 -114 7 8 971 3771 970 3788 0 8 -332 95 -361 95 -3 0 -234 -846 -514
-1880z m-71 -1108 c-119 -464 -170 -649 -179 -645 -10 3 -7 24 10 86 12 45 91
337 175 649 85 312 155 566 157 564 2 -1 -72 -296 -163 -654z"/>
<path d="M99278 86237 c-173 -311 -255 -476 -346 -702 -152 -378 -252 -785
-293 -1190 -16 -153 -16 -558 0 -695 44 -390 96 -588 264 -1010 90 -225 102
-251 109 -225 9 36 430 4096 426 4101 -2 2 -74 -124 -160 -279z m-261 -1854
c-61 -590 -115 -1069 -119 -1065 -9 9 -44 215 -59 352 -18 156 -15 537 5 705
25 202 51 348 96 528 51 203 172 568 185 555 2 -2 -47 -486 -108 -1075z"/>
<path d="M97457 67317 l-147 -142 955 -905 c526 -498 993 -940 1039 -982 l83
-77 131 132 132 132 -966 940 c-531 517 -991 963 -1023 992 l-57 51 -147 -141z"/>
<path d="M96849 65487 c-51 -72 -103 -146 -116 -163 l-23 -31 999 -717 c550
-394 1002 -716 1005 -716 3 0 53 64 112 142 75 98 104 145 98 154 -7 10 -1788
1326 -1951 1442 l-31 22 -93 -133z"/>
<path d="M59365 89945 c-331 -51 -1753 -261 -2265 -335 -435 -63 -848 -115
-1285 -163 -18 -2 -20 -8 -16 -82 4 -97 18 -142 51 -167 26 -19 60 -26 261
-52 63 -9 136 -23 162 -32 68 -23 110 -77 136 -172 31 -121 174 -987 250
-1517 91 -639 375 -3121 375 -3290 1 -103 -1 -113 -28 -163 -40 -72 -102 -117
-205 -148 -137 -41 -181 -131 -132 -269 l17 -50 75 3 c41 2 351 50 689 108
1088 184 1406 229 2545 360 523 59 565 68 604 123 10 14 24 44 30 66 11 38 49
525 71 912 12 207 12 210 -62 311 l-44 60 -45 -56 c-61 -76 -62 -78 -98 -222
-17 -69 -44 -160 -60 -202 -135 -348 -368 -570 -692 -657 -318 -86 -1312 -210
-1594 -199 -125 5 -194 29 -253 87 -85 86 -110 165 -157 506 -59 432 -185
1513 -185 1591 0 126 74 207 215 233 84 16 751 105 985 132 127 15 257 23 375
23 167 1 184 -1 230 -22 100 -46 164 -130 288 -377 41 -83 82 -156 89 -163 8
-6 47 -29 86 -51 l71 -39 27 81 c35 106 33 134 -56 762 -39 275 -80 595 -92
710 -11 116 -22 212 -24 214 -2 3 -29 4 -59 3 -113 -3 -149 -50 -166 -214 -32
-323 -101 -411 -369 -476 -210 -51 -1436 -252 -1536 -252 -86 0 -140 38 -168
119 -9 23 -41 223 -71 444 -31 221 -94 665 -140 987 -84 578 -94 681 -75 751
20 73 97 124 230 153 144 31 887 143 1300 196 260 34 387 14 524 -84 145 -104
241 -273 365 -649 60 -178 100 -214 211 -187 60 14 57 -25 30 389 -11 167 -25
426 -30 575 -12 336 -20 370 -97 402 -44 19 -111 16 -288 -11z"/>
<path d="M71102 88951 c-283 -105 -398 -533 -200 -747 23 -25 65 -58 93 -72
44 -24 62 -27 145 -27 84 0 102 3 157 29 176 81 288 316 254 534 -14 92 -41
151 -93 208 -63 69 -106 87 -213 91 -71 3 -101 -1 -143 -16z"/>
<path d="M62304 87746 c-30 -13 -386 -218 -582 -335 -92 -54 -212 -155 -253
-212 l-19 -28 72 -57 c40 -31 93 -66 118 -76 152 -66 218 -119 241 -198 10
-33 10 -183 0 -743 -24 -1396 -27 -1440 -82 -1549 -31 -62 -113 -143 -195
-194 -62 -38 -82 -59 -133 -134 -34 -49 -61 -91 -61 -94 0 -3 321 -6 714 -6
824 0 724 -15 826 120 l60 79 -118 26 c-394 90 -404 95 -423 231 -13 95 6
2068 21 2149 15 85 62 177 115 223 61 53 165 102 342 161 199 66 248 75 383
75 139 -1 224 -20 335 -74 177 -86 295 -232 336 -415 21 -93 19 -1266 -4
-1754 -20 -422 -15 -400 -110 -507 -24 -27 -85 -103 -136 -169 l-92 -120 88
-42 88 -43 160 0 c195 0 787 18 946 29 122 9 170 25 190 63 14 27 14 110 -1
181 l-11 54 -83 6 c-46 3 -112 2 -147 -3 -137 -20 -197 -4 -231 62 -17 32 -18
91 -23 914 -4 879 -12 1125 -41 1369 -61 503 -280 813 -639 906 -110 28 -286
29 -410 1 -188 -42 -330 -107 -830 -381 -205 -112 -240 -129 -246 -114 -3 10
-11 119 -18 243 -15 296 -18 318 -47 347 -26 26 -55 29 -100 9z"/>
<path d="M67375 87556 c-126 -29 -488 -178 -677 -279 -65 -34 -159 -91 -210
-127 -614 -433 -792 -1350 -383 -1966 111 -166 254 -296 450 -408 126 -72 158
-98 150 -118 -4 -9 -140 -75 -318 -154 -172 -76 -339 -157 -372 -179 -167
-114 -216 -276 -135 -442 43 -87 135 -182 302 -314 l138 -107 -188 -115 c-103
-63 -218 -132 -257 -154 -38 -22 -104 -59 -145 -83 -222 -128 -365 -296 -429
-504 -67 -217 -38 -489 70 -673 42 -71 155 -187 234 -240 288 -194 839 -318
1263 -284 517 41 959 243 1336 610 277 270 464 547 516 762 24 101 26 262 5
362 -52 245 -223 456 -470 579 -175 87 -313 115 -1180 233 -158 21 -297 50
-335 70 -49 25 -107 92 -141 161 l-31 63 21 35 c64 104 142 141 666 326 395
139 490 182 665 301 292 199 492 462 600 788 55 165 73 285 74 476 0 175 -7
228 -61 478 -20 92 -34 169 -32 172 3 2 155 -14 339 -35 196 -23 350 -37 373
-33 52 8 94 45 107 94 17 60 17 207 1 262 -17 58 -72 111 -133 128 -32 8 -101
9 -263 3 -330 -13 -478 -11 -555 10 -99 27 -174 61 -279 129 -117 74 -231 128
-331 157 -96 28 -297 36 -385 16z m-4 -341 c254 -66 468 -271 589 -566 55
-133 98 -316 125 -532 l14 -110 -55 -225 c-100 -411 -159 -557 -270 -668 -64
-64 -152 -114 -234 -133 -67 -16 -204 -13 -274 5 -344 88 -663 498 -760 975
-98 481 32 950 321 1156 73 52 187 100 271 113 74 12 196 5 273 -15z m-159
-3875 c419 -66 555 -99 703 -171 151 -74 262 -188 316 -326 33 -83 33 -249 0
-343 -109 -313 -445 -561 -879 -649 -157 -32 -349 -44 -497 -32 -348 30 -600
131 -799 320 -291 278 -262 614 82 942 129 125 261 203 422 253 187 58 311 59
652 6z"/>
<path d="M70700 86895 c-394 -73 -600 -116 -650 -138 -19 -8 -82 -50 -139 -93
l-104 -78 134 -64 c258 -122 261 -124 293 -175 24 -38 29 -57 29 -110 0 -35
-7 -88 -16 -118 -21 -72 -43 -189 -62 -329 -20 -141 -42 -244 -140 -655 -133
-558 -284 -1154 -301 -1187 -33 -64 -75 -113 -121 -143 -44 -27 -54 -30 -178
-35 -149 -6 -176 -16 -202 -78 -14 -35 -14 -135 1 -150 7 -6 904 -192 1193
-247 226 -43 252 -42 317 15 65 57 99 188 61 230 -23 26 -86 45 -229 70 -65
11 -130 27 -145 34 -67 35 -81 88 -62 239 5 48 154 716 330 1484 288 1257 360
1595 342 1592 -3 0 -161 -29 -351 -64z"/>
<path d="M47284 86506 c-92 -30 -163 -98 -212 -204 -35 -75 -43 -237 -17 -328
41 -140 128 -253 234 -303 48 -22 69 -26 151 -26 83 0 101 4 145 27 166 87
239 295 181 515 -35 132 -128 252 -233 301 -68 31 -183 40 -249 18z"/>
<path d="M73120 86365 c-30 -8 -194 -48 -365 -89 -170 -41 -332 -81 -358 -90
-60 -18 -198 -107 -192 -123 15 -43 119 -164 189 -220 105 -85 128 -118 128
-180 -1 -95 -635 -2033 -693 -2117 -32 -48 -151 -131 -434 -304 -49 -31 -92
-57 -94 -58 -2 -2 5 -17 15 -35 19 -31 25 -33 649 -211 347 -98 651 -183 677
-189 70 -16 114 8 150 81 48 98 50 95 -92 169 -179 94 -197 107 -230 165 -25
43 -30 62 -30 119 0 57 13 106 84 330 47 144 162 514 256 822 271 886 289 936
389 1036 69 69 129 93 271 109 152 18 423 8 525 -19 216 -58 383 -184 475
-362 56 -109 73 -189 67 -324 -5 -115 -43 -273 -163 -669 -114 -377 -391
-1202 -428 -1274 -27 -52 -67 -92 -170 -170 -56 -42 -142 -112 -192 -155 l-92
-79 54 -49 c29 -26 64 -55 78 -64 35 -23 158 -58 1040 -291 104 -28 182 -31
215 -8 31 22 51 72 66 166 l12 76 -41 11 c-23 6 -89 22 -148 36 -116 26 -171
50 -203 85 -17 19 -20 36 -20 109 0 74 7 107 47 236 78 249 373 1294 437 1545
148 584 161 755 77 1002 -45 133 -86 198 -191 304 -78 78 -104 97 -195 142
-130 64 -239 91 -395 99 -151 7 -224 -4 -730 -106 -214 -44 -392 -78 -393 -76
-2 2 24 113 58 247 72 282 77 330 36 364 -31 27 -64 29 -146 9z"/>
<path d="M51881 85930 c-118 -16 -259 -69 -381 -142 -127 -77 -283 -226 -575
-548 -82 -91 -173 -191 -204 -222 l-55 -58 -91 246 c-94 251 -113 288 -158
314 -25 14 -30 13 -71 -8 -27 -15 -73 -57 -117 -110 -41 -48 -128 -148 -194
-222 -254 -284 -314 -359 -332 -416 -35 -114 7 -143 221 -154 152 -8 200 -21
249 -68 16 -15 35 -38 42 -53 16 -29 629 -1953 644 -2019 32 -138 -10 -285
-115 -408 -17 -21 -38 -50 -46 -67 -15 -29 -63 -244 -56 -250 2 -1 163 56 358
127 195 71 495 178 665 239 171 61 324 119 342 130 41 26 56 68 40 117 -10 30
-22 42 -62 62 -47 23 -59 25 -225 25 -202 0 -215 5 -262 92 -33 61 -598 1760
-649 1953 -16 60 -23 115 -23 185 -1 91 2 105 28 157 79 156 453 425 671 482
33 9 103 19 155 22 239 16 447 -89 580 -292 46 -71 108 -224 225 -559 141
-402 425 -1368 425 -1444 0 -27 -15 -87 -36 -146 -53 -149 -114 -359 -106
-366 11 -9 120 -29 161 -29 20 0 110 27 201 59 281 101 887 329 928 350 75 38
103 95 82 164 -14 50 -80 157 -97 157 -6 0 -104 -36 -218 -80 -115 -44 -209
-79 -211 -77 -1 1 -59 164 -128 362 -68 198 -141 405 -161 460 -20 55 -90 253
-155 440 -236 682 -367 992 -502 1193 -196 291 -493 442 -787 402z"/>
<path d="M48049 84486 c-252 -226 -478 -439 -510 -480 -22 -29 -122 -296 -113
-305 2 -2 65 8 139 24 181 36 263 33 357 -13 36 -18 72 -42 80 -55 33 -50 453
-988 717 -1601 180 -418 194 -461 195 -596 1 -91 -2 -111 -23 -153 -33 -67
-103 -132 -188 -174 -40 -20 -73 -36 -73 -37 0 -1 9 -25 20 -55 30 -77 55
-123 79 -145 20 -18 27 -19 66 -8 24 6 137 62 252 123 327 176 550 279 951
439 l134 53 -7 55 c-16 132 -52 224 -94 242 -38 15 -65 7 -216 -63 -96 -45
-144 -62 -186 -65 -53 -4 -56 -3 -87 32 -42 48 -56 76 -215 441 -361 828 -716
1671 -904 2145 -80 201 -148 371 -152 377 -4 8 -81 -54 -222 -181z"/>
<path d="M77660 84645 c-8 -2 -55 -9 -105 -15 -123 -17 -308 -69 -438 -124
-540 -227 -994 -717 -1191 -1285 -157 -452 -166 -898 -25 -1250 121 -303 361
-563 642 -696 190 -90 373 -119 707 -112 254 5 400 27 615 92 213 65 251 90
374 244 l51 64 -20 31 c-12 19 -26 30 -37 28 -10 -2 -113 -28 -230 -58 -143
-36 -251 -58 -333 -66 -350 -34 -682 79 -897 305 -88 93 -124 145 -178 260
-98 208 -125 448 -80 702 22 120 109 408 139 459 31 53 76 83 148 98 57 12
-23 24 1415 -213 264 -43 510 -79 545 -79 105 1 183 45 247 142 l41 61 -88 57
c-133 86 -145 112 -161 365 -6 88 -20 198 -30 245 -67 302 -250 537 -514 660
-133 62 -225 81 -417 85 -91 2 -172 2 -180 0z m220 -260 c148 -80 292 -301
336 -515 20 -98 15 -254 -10 -336 -33 -107 -115 -154 -235 -136 -375 57 -1098
177 -1105 183 -6 5 16 61 53 136 149 304 329 507 564 633 112 61 148 70 252
67 78 -2 98 -7 145 -32z"/>
<path d="M80833 83099 c-470 -36 -948 -276 -1320 -663 -494 -513 -714 -1196
-568 -1761 107 -412 400 -767 745 -903 234 -92 625 -135 928 -101 122 13 332
54 419 80 71 22 119 61 215 171 49 57 49 57 32 84 -17 26 -19 26 -103 20 -47
-4 -153 -14 -236 -23 -206 -22 -447 -22 -549 1 -176 39 -343 121 -475 234
-133 113 -249 304 -297 487 -22 85 -26 122 -27 250 -1 262 62 484 215 752 33
58 50 77 82 92 87 42 115 40 461 -43 360 -87 946 -235 1287 -325 174 -47 244
-61 295 -61 104 1 180 43 245 138 l31 45 -29 21 c-58 41 -133 118 -150 154
-14 31 -19 79 -25 277 -9 309 -30 412 -125 596 -86 166 -206 284 -379 369
-128 63 -260 97 -428 110 -73 5 -134 9 -137 9 -3 -1 -51 -5 -107 -10z m220
-234 c124 -32 225 -132 316 -312 56 -112 75 -202 75 -348 0 -193 -32 -292
-112 -353 -53 -41 -147 -37 -315 12 -71 20 -311 84 -534 141 -223 57 -408 107
-410 109 -7 6 47 100 123 216 150 229 309 372 530 477 88 41 186 70 244 72 14
1 51 -6 83 -14z"/>
<path d="M43827 82240 c-86 -14 -217 -62 -295 -108 -86 -51 -205 -161 -270
-250 -66 -90 -147 -227 -277 -467 -106 -197 -231 -411 -245 -420 -4 -3 -90
109 -190 248 -101 138 -186 255 -189 259 -21 24 -197 -274 -393 -665 -89 -178
-94 -194 -103 -299 l-7 -85 83 -6 c63 -5 114 -2 205 14 147 25 190 18 243 -40
37 -40 1080 -1744 1138 -1858 29 -58 37 -88 41 -147 6 -91 -12 -148 -73 -242
-80 -122 -83 -172 -11 -250 l43 -48 99 64 c54 35 314 207 576 382 471 315 478
319 489 361 24 90 -16 154 -103 164 -37 4 -62 -2 -134 -32 -143 -60 -194 -71
-244 -56 -23 7 -60 29 -81 49 -21 20 -116 163 -210 317 -156 253 -567 912
-843 1349 -121 193 -141 244 -134 350 6 89 26 131 149 306 179 258 329 381
544 450 55 18 94 22 180 23 129 0 226 -27 334 -90 75 -45 195 -153 255 -232
57 -75 299 -439 416 -626 149 -239 478 -791 515 -864 118 -234 109 -414 -30
-595 -20 -27 -35 -49 -33 -51 7 -6 145 -44 168 -45 56 -4 76 5 237 111 220
146 921 628 927 637 6 11 -135 272 -147 272 -5 0 -96 -63 -202 -139 -176 -127
-195 -138 -208 -123 -44 53 -163 234 -397 602 -324 512 -604 937 -718 1090
-221 298 -445 516 -624 606 -143 72 -339 106 -481 84z"/>
<path d="M83325 81509 c-417 -18 -455 -57 -305 -319 69 -121 87 -187 70 -252
-8 -27 -150 -255 -379 -608 -583 -896 -769 -1173 -807 -1199 -40 -28 -233 -96
-397 -141 l-118 -33 7 -31 c3 -17 9 -34 13 -37 12 -13 1304 -829 1311 -829 4
0 58 55 119 121 l111 122 -128 79 c-70 44 -170 105 -222 136 -160 94 -202 154
-167 242 8 21 126 213 263 427 519 813 782 1206 849 1269 111 105 251 124 547
74 215 -36 302 -126 335 -347 16 -112 32 -147 75 -169 63 -33 247 7 425 91
100 47 170 105 211 174 67 114 22 381 -81 489 -83 87 -206 108 -434 77 -59 -8
-279 -33 -488 -55 -359 -39 -380 -40 -392 -24 -7 10 -13 24 -13 31 0 8 106
169 235 360 130 190 233 349 229 352 -9 10 -640 10 -869 0z"/>
<path d="M87522 81451 c-214 -80 -352 -274 -340 -479 6 -98 36 -168 95 -223
74 -68 120 -84 248 -84 106 0 113 1 188 37 107 51 194 138 245 245 35 75 37
82 37 183 0 95 -3 111 -28 162 -32 65 -89 121 -155 150 -69 31 -218 35 -290 9z"/>
<path d="M85636 79899 c-60 -10 -110 -20 -113 -22 -5 -6 125 -166 197 -242 69
-73 95 -134 87 -204 -8 -68 -30 -107 -138 -246 -51 -66 -332 -439 -624 -830
-293 -390 -560 -738 -593 -772 -179 -182 -332 -209 -525 -93 -67 41 -69 41
-89 23 -44 -40 -108 -136 -108 -162 0 -39 34 -67 295 -243 127 -85 331 -226
455 -315 199 -142 261 -189 436 -330 l41 -33 74 64 c133 114 159 178 97 240
-18 18 -78 59 -133 91 -129 75 -165 112 -165 169 0 83 37 137 548 806 499 652
1075 1396 1258 1624 111 138 201 252 199 254 -5 6 -550 146 -750 193 -236 55
-276 57 -449 28z"/>
<path d="M40273 79815 c-359 -65 -629 -324 -762 -732 -191 -581 -110 -1252
217 -1801 177 -297 448 -571 718 -726 416 -240 903 -280 1303 -108 291 126
509 358 692 737 111 229 202 560 203 740 1 84 -2 98 -43 200 -24 61 -46 113
-50 117 -3 4 -21 3 -40 0 l-34 -7 -44 -170 c-76 -299 -125 -421 -232 -582
-151 -226 -351 -380 -591 -458 -114 -37 -305 -46 -431 -20 -166 33 -319 105
-486 228 -96 72 -356 333 -382 384 -27 55 -28 133 -1 187 11 23 140 196 288
386 647 832 881 1138 903 1180 19 36 24 61 24 125 0 69 -4 88 -29 137 -16 32
-39 67 -51 78 l-22 21 -93 -82 c-86 -76 -94 -81 -114 -69 -75 48 -317 162
-401 188 -190 60 -380 77 -542 47z m197 -515 c41 -12 100 -35 131 -52 73 -38
164 -120 189 -168 28 -55 36 -137 17 -180 -20 -46 -169 -249 -462 -629 l-240
-311 -39 42 c-107 119 -239 354 -290 516 -51 164 -71 379 -46 490 37 157 155
267 330 307 94 21 311 14 410 -15z"/>
<path d="M87537 78435 c-43 -7 -81 -15 -83 -18 -3 -2 4 -46 16 -98 14 -65 36
-124 72 -194 59 -114 67 -169 32 -223 -31 -49 -1315 -1473 -1454 -1613 -84
-85 -142 -113 -242 -117 -64 -3 -91 1 -153 22 -89 31 -116 32 -172 7 -39 -18
-103 -89 -103 -115 0 -6 143 -129 318 -273 174 -144 404 -336 510 -426 106
-91 210 -173 230 -183 73 -34 145 -15 200 53 l30 38 -83 110 c-113 148 -135
193 -135 277 0 37 4 77 9 90 15 40 853 998 1265 1446 186 203 210 220 340 243
114 19 225 8 341 -36 309 -116 503 -265 600 -460 111 -226 74 -494 -103 -745
-61 -85 -263 -328 -426 -510 -292 -328 -768 -837 -813 -871 -136 -101 -223
-124 -413 -105 -80 7 -87 6 -120 -16 -43 -29 -58 -73 -41 -128 10 -34 44 -66
274 -257 449 -375 727 -593 755 -593 28 0 87 26 150 66 53 34 54 36 47 71 -18
99 -41 126 -237 272 l-97 73 106 121 c601 691 788 910 1050 1237 440 548 583
827 583 1136 0 331 -204 612 -542 749 -106 42 -246 78 -593 149 -235 48 -429
97 -442 110 -3 2 83 118 191 258 l195 253 -72 34 c-77 36 -189 61 -582 130
-279 50 -313 53 -408 36z"/>
<path d="M37328 77240 c-137 -24 -262 -88 -364 -183 -201 -188 -297 -419 -439
-1062 -52 -235 -68 -279 -114 -317 -44 -38 -86 -43 -231 -28 -358 37 -608 -26
-790 -197 -164 -154 -237 -327 -280 -662 -24 -196 -121 -725 -134 -738 -3 -4
-109 95 -234 219 -125 124 -241 233 -259 242 -48 24 -88 21 -112 -9 -26 -34
-34 -76 -70 -365 -86 -687 -84 -768 22 -784 60 -9 122 6 212 54 97 51 157 54
234 13 36 -20 259 -229 748 -703 383 -371 723 -701 755 -732 118 -118 141
-221 79 -354 -56 -119 -44 -184 45 -246 79 -55 71 -60 251 160 184 225 387
455 549 622 147 152 169 197 126 263 -21 30 -79 77 -98 77 -6 0 -60 -23 -119
-51 -208 -97 -276 -98 -402 -10 -115 81 -772 701 -1220 1153 -293 295 -302
315 -248 568 15 69 46 184 69 255 73 219 147 348 265 457 119 110 240 160 391
162 138 1 262 -40 383 -128 88 -63 524 -487 1025 -996 473 -481 477 -486 477
-600 0 -56 -6 -77 -43 -153 -34 -72 -42 -100 -42 -145 0 -54 2 -57 50 -104 27
-26 58 -48 69 -48 12 0 202 202 530 561 418 458 510 564 500 575 -6 8 -47 46
-90 85 l-78 70 -154 -105 c-169 -114 -218 -135 -278 -117 -73 22 -110 54 -674
586 -398 376 -538 504 -715 660 -195 171 -245 235 -276 355 -24 93 -9 173 66
363 102 257 217 425 361 523 110 74 172 96 300 102 186 8 335 -44 568 -198
136 -91 173 -122 467 -406 512 -492 880 -867 909 -924 14 -27 39 -98 56 -157
44 -154 87 -257 119 -288 27 -26 30 -26 67 -14 49 17 142 110 408 409 116 129
263 293 328 363 152 165 171 207 125 288 -19 34 -87 99 -103 99 -4 0 -76 -45
-160 -100 -179 -117 -228 -140 -298 -140 -92 0 -133 32 -515 395 -168 161
-735 671 -936 843 -274 236 -525 420 -646 474 -136 61 -316 90 -432 68z"/>
<path d="M90890 75160 c-141 -25 -271 -69 -415 -139 -394 -193 -672 -533 -778
-949 -19 -75 -22 -114 -22 -287 0 -184 2 -208 27 -305 14 -58 41 -141 58 -185
27 -69 55 -195 42 -195 -2 0 -110 31 -240 69 -417 123 -468 135 -562 135 -193
-1 -319 -109 -351 -301 -14 -83 -2 -171 56 -411 19 -80 34 -146 33 -148 -2 -1
-185 27 -408 63 -374 59 -414 64 -520 59 -220 -9 -385 -80 -536 -231 -132
-131 -199 -264 -225 -448 -33 -241 72 -582 257 -832 341 -460 744 -743 1233
-865 168 -43 325 -60 534 -60 260 0 524 36 762 105 304 88 517 290 607 575 20
65 23 95 23 230 0 132 -3 167 -23 235 -61 210 -170 367 -503 726 -350 376
-458 500 -508 584 -30 50 -35 67 -38 139 -7 136 37 184 176 194 84 6 139 -11
551 -163 433 -160 533 -189 750 -216 128 -16 367 -6 492 21 297 62 531 191
753 414 158 159 228 259 351 499 l90 178 183 -195 c101 -106 210 -217 243
-246 57 -50 136 -90 179 -90 54 0 160 82 195 153 46 90 23 217 -54 301 -37 40
-239 200 -342 271 -108 75 -224 192 -272 275 -21 35 -56 120 -79 189 -109 331
-259 519 -514 646 -180 89 -469 177 -687 209 -145 22 -382 20 -518 -4z m669
-235 c181 -43 368 -201 461 -390 57 -116 74 -189 73 -320 -1 -128 -34 -273
-103 -447 -137 -346 -392 -642 -730 -848 -258 -157 -418 -178 -618 -84 -106
51 -197 145 -256 266 -52 106 -66 153 -101 355 -24 140 -25 148 -11 241 50
331 231 669 492 923 264 255 544 362 793 304z m-2888 -2691 c205 -87 281 -133
435 -265 209 -179 513 -501 616 -653 157 -230 169 -452 33 -655 -114 -173
-279 -266 -519 -291 -373 -40 -803 144 -1151 494 -132 133 -226 262 -299 411
-167 339 -151 605 47 799 122 120 270 177 500 191 102 7 109 8 119 31 7 15 17
23 26 19 7 -3 94 -39 193 -81z"/>
<path d="M33350 72249 c-493 -26 -871 -204 -1110 -521 -150 -199 -247 -454
-297 -778 -22 -144 -25 -498 -5 -610 64 -356 196 -641 417 -901 309 -363 860
-651 1357 -709 131 -16 352 -9 463 15 199 41 414 135 578 252 104 74 291 254
373 359 289 369 390 829 293 1330 -81 421 -303 788 -654 1082 -258 216 -600
382 -921 447 -109 22 -157 28 -324 38 -25 2 -101 0 -170 -4z m129 -645 c571
-118 1050 -405 1387 -829 209 -264 288 -444 287 -655 0 -87 -5 -119 -27 -183
-85 -250 -315 -430 -662 -518 -505 -127 -983 1 -1529 411 -165 124 -281 225
-420 364 -131 131 -199 220 -260 338 -111 212 -114 411 -10 623 144 295 429
450 890 483 114 8 169 3 344 -34z"/>
<path d="M29265 71796 c-54 -24 -83 -68 -219 -327 -160 -307 -257 -480 -388
-699 -103 -172 -134 -249 -123 -300 10 -47 53 -90 119 -121 l60 -29 29 28 c15
15 56 71 89 125 137 221 181 263 273 255 124 -10 215 -100 1280 -1253 448
-486 1714 -1869 1775 -1941 25 -29 63 -85 84 -125 l39 -72 -34 6 c-19 4 -153
22 -299 42 -285 38 -556 83 -1905 316 -1236 213 -2110 368 -2180 385 -33 9
-79 26 -101 39 -37 22 -49 38 -68 97 -8 27 12 121 51 241 41 126 39 157 -16
194 -86 58 -165 49 -212 -22 -14 -22 -113 -204 -219 -405 -107 -201 -254 -473
-327 -605 -74 -132 -141 -261 -150 -287 -29 -91 5 -161 105 -216 l62 -34 20
24 c11 12 37 55 57 93 52 97 141 185 218 215 80 31 222 32 350 2 50 -11 216
-44 370 -72 463 -85 575 -117 687 -199 42 -31 81 -73 579 -631 903 -1013 1479
-1673 1518 -1741 23 -39 41 -73 41 -75 0 -2 -53 -4 -119 -4 -101 0 -271 22
-1137 149 -1881 276 -3026 449 -3154 477 -96 21 -155 49 -181 86 -33 46 -22
140 35 317 26 79 45 149 43 156 -3 6 -32 25 -65 43 -88 47 -152 41 -209 -20
-12 -13 -68 -111 -124 -218 -128 -247 -265 -498 -443 -815 -77 -137 -146 -266
-152 -285 -21 -56 -17 -107 13 -161 24 -45 99 -119 120 -119 5 0 20 24 35 53
60 122 163 213 295 259 61 21 85 23 233 22 161 -1 199 -6 1700 -227 2871 -423
2718 -400 3528 -542 415 -72 421 -73 517 -44 42 12 79 28 82 34 2 7 -9 65 -26
130 -26 105 -34 122 -69 159 -75 79 -2269 2642 -2391 2794 -67 85 -120 156
-117 159 25 25 154 7 1034 -141 1074 -181 1478 -252 1912 -336 521 -101 890
-170 910 -170 10 0 55 11 100 25 72 23 80 28 75 48 -2 12 -12 53 -20 92 -19
84 -9 68 -191 302 -285 365 -279 358 -2234 2613 -1358 1566 -1313 1513 -1381
1655 -76 158 -76 295 -1 448 l39 78 -31 24 c-40 30 -115 65 -141 64 -11 0 -33
-6 -50 -13z"/>
<path d="M91100 69004 c-19 -2 -73 -9 -120 -15 -124 -15 -308 -57 -365 -85
-28 -13 -94 -54 -148 -92 l-97 -70 67 -40 c116 -68 167 -90 292 -127 368 -109
634 -279 813 -518 143 -193 208 -364 287 -762 126 -635 137 -1225 35 -1840
-156 -936 -703 -2341 -1429 -3670 -577 -1055 -1273 -2116 -2225 -3390 -1743
-2333 -3818 -4596 -6260 -6826 -1162 -1061 -2597 -2332 -5573 -4936 -2721
-2382 -3790 -3326 -6872 -6074 -533 -475 -1343 -1197 -1799 -1603 -456 -407
-859 -762 -895 -789 -64 -48 -66 -49 -69 -27 -7 46 18 97 119 240 397 568 707
1096 1083 1850 806 1618 1545 3604 2201 5918 279 986 512 1885 1249 4817 517
2058 505 2015 547 2098 114 227 283 386 1784 1682 1266 1093 1833 1606 2459
2225 1411 1396 2252 2526 2761 3715 259 605 377 1083 392 1591 13 414 -49 728
-207 1049 -108 221 -227 384 -392 541 -389 366 -900 543 -1508 521 -645 -23
-1302 -253 -2030 -709 -466 -292 -887 -635 -1376 -1123 -1492 -1489 -2671
-3363 -3936 -6255 -423 -966 -913 -2216 -1438 -3665 -84 -231 -166 -447 -183
-480 -73 -148 -71 -145 -687 -624 -1458 -1134 -1724 -1333 -4825 -3607 -2459
-1804 -12211 -8938 -12580 -9204 -249 -179 -818 -571 -822 -566 -3 3 -2 27 2
53 6 46 15 57 183 235 97 102 294 307 437 455 2541 2625 5026 5545 7320 8598
2035 2709 3433 4828 4540 6886 530 983 859 1682 1115 2364 622 1660 807 3234
564 4815 -257 1669 -1036 3000 -2319 3958 -481 360 -1053 671 -1701 926 -1063
418 -2254 680 -3499 770 -732 53 -1648 46 -2445 -19 -1704 -140 -3389 -552
-5225 -1278 -2061 -815 -4018 -1876 -5728 -3105 -65 -47 -119 -83 -121 -81 -2
2 -16 29 -31 59 -153 304 -440 618 -731 798 -331 206 -684 301 -1069 289 -172
-5 -261 -18 -415 -57 -637 -162 -1223 -721 -1498 -1426 -122 -313 -187 -631
-277 -1362 -25 -202 -57 -459 -71 -571 -76 -612 -205 -1034 -430 -1403 -137
-225 -587 -843 -839 -1153 -289 -355 -427 -562 -580 -870 -296 -600 -428
-1223 -412 -1954 12 -555 96 -978 337 -1686 51 -148 189 -558 307 -910 l214
-640 -5 -80 c-14 -241 -127 -680 -258 -1005 -167 -416 -519 -1032 -765 -1340
-103 -130 -304 -325 -441 -428 -176 -132 -186 -136 -307 -134 -55 1 -143 6
-195 11 -645 65 -1279 -43 -1970 -337 -225 -96 -937 -454 -1006 -506 -80 -60
-120 -104 -108 -116 6 -6 27 5 59 32 124 103 281 190 600 334 363 163 433 188
594 218 156 30 267 21 936 -69 145 -19 403 -19 524 0 133 22 222 54 398 145
84 44 159 80 166 80 7 0 23 -21 35 -46 57 -116 173 -314 277 -469 576 -864
1439 -1491 2482 -1806 413 -124 914 -226 1348 -274 254 -27 386 -36 685 -42
898 -18 1798 128 2705 437 695 238 1436 548 2115 886 168 83 307 150 308 149
2 -2 19 -77 38 -167 122 -585 304 -1146 549 -1693 127 -285 186 -390 235 -425
l32 -23 -7 49 c-4 27 -56 171 -115 320 -186 465 -353 942 -465 1329 -57 197
-151 564 -159 625 l-6 45 217 120 c906 500 1763 1095 2543 1764 476 408 1031
958 1461 1446 1060 1204 2024 2734 2547 4045 309 775 483 1495 554 2300 20
230 17 937 -5 1125 -66 555 -181 946 -401 1370 -268 516 -587 840 -887 901
-93 19 -141 7 -176 -45 -42 -62 -26 -112 86 -268 758 -1063 770 -2371 38
-4123 -263 -630 -708 -1477 -1140 -2169 -973 -1562 -2124 -2883 -3732 -4287
-259 -226 -825 -694 -839 -694 -2 0 -4 82 -4 183 0 447 -104 794 -358 1187
-245 380 -400 697 -444 915 -6 28 -15 131 -20 230 -10 200 -23 267 -97 489
-59 179 -178 419 -335 676 -69 113 -183 300 -253 415 -446 732 -526 925 -671
1615 -73 348 -67 476 31 670 142 283 175 622 85 890 -78 234 -235 432 -482
607 -130 92 -189 153 -235 239 -52 97 -72 207 -108 589 -8 88 -24 198 -35 245
-39 162 -151 350 -266 446 -167 139 -300 190 -631 244 -274 44 -304 50 -344
71 -38 19 -99 84 -99 105 0 22 -69 73 -124 90 -52 16 -55 16 -86 -2 -18 -10
-42 -31 -53 -46 l-20 -27 24 -47 c21 -42 35 -54 109 -94 162 -89 199 -140 236
-323 13 -64 15 -112 11 -222 -9 -207 -31 -315 -68 -335 -86 -46 -321 273 -391
530 -20 75 -23 109 -23 280 0 203 9 267 46 342 44 88 126 151 228 174 76 18
116 17 287 -7 124 -17 157 -19 212 -9 128 22 229 95 285 207 14 27 62 161 107
299 93 280 117 345 196 516 110 241 174 482 193 730 9 119 13 134 59 245 86
203 143 410 167 598 l6 50 182 141 c502 390 958 711 1542 1086 2785 1788 5392
2871 8078 3358 410 75 849 131 1287 167 272 22 1080 25 1325 5 1094 -89 1874
-317 2559 -750 695 -439 1248 -1107 1558 -1882 380 -946 455 -2195 218 -3585
-239 -1403 -849 -3187 -1735 -5080 -984 -2102 -2743 -5083 -4595 -7785 -2084
-3040 -4668 -6339 -7324 -9350 -1042 -1181 -1929 -2150 -3377 -3691 -275 -292
-400 -463 -528 -721 -77 -153 -109 -259 -118 -380 -16 -250 127 -449 389 -539
230 -79 549 -89 801 -25 176 45 478 178 687 302 215 128 1976 1306 2650 1773
971 672 7676 5461 10465 7475 3848 2777 7594 5601 10655 8030 284 225 457 352
468 342 7 -8 -44 -160 -214 -633 -692 -1922 -708 -1970 -1834 -5463 -934
-2896 -1458 -4463 -1803 -5390 -705 -1894 -1482 -3426 -2364 -4661 -140 -197
-193 -316 -249 -555 -23 -98 -28 -143 -28 -254 -1 -131 0 -137 30 -201 70
-148 188 -224 374 -244 85 -9 390 10 555 34 476 70 879 267 1347 657 163 136
190 161 1408 1294 2625 2440 3169 2935 4970 4510 311 272 750 657 975 855 226
198 426 372 445 387 72 54 138 53 196 -3 38 -37 121 -201 159 -313 30 -90 60
-279 75 -476 14 -186 14 -4907 0 -5091 -21 -266 -65 -459 -133 -579 -45 -80
-158 -189 -242 -232 -127 -66 -248 -97 -643 -167 -89 -15 -166 -32 -170 -35
-4 -4 -7 -97 -7 -206 0 -186 1 -200 21 -227 11 -15 36 -33 55 -40 26 -9 490
-12 1937 -12 l1904 -1 27 28 c28 27 28 29 36 200 6 158 5 174 -12 204 -28 49
-78 69 -202 79 -62 6 -189 29 -297 54 -253 60 -345 104 -459 219 -163 164
-204 320 -235 891 -6 111 -10 1545 -10 3731 0 3235 1 3555 16 3605 22 75 45
116 94 172 24 26 354 308 734 625 380 317 1272 1062 1981 1656 2166 1813 3129
2615 4440 3696 3429 2829 5227 4422 7055 6250 1826 1824 3187 3399 4256 4920
1134 1614 1802 2931 2173 4285 325 1183 228 2249 -290 3201 -142 260 -287 451
-505 665 -477 466 -1072 759 -1754 864 -100 15 -482 28 -560 19z m-50015
-5234 c356 -75 665 -246 916 -507 157 -163 182 -248 183 -613 0 -236 -12 -346
-63 -555 -92 -377 -249 -670 -576 -1078 -494 -616 -1123 -1174 -1885 -1674
-1007 -659 -1396 -927 -1660 -1146 -131 -108 -385 -368 -496 -507 -242 -304
-430 -631 -578 -1006 -123 -313 -167 -538 -167 -844 1 -321 70 -1214 156
-2005 78 -717 101 -1071 90 -1375 -10 -268 -6 -267 -90 -25 -40 116 -139 388
-220 605 -395 1058 -462 1297 -511 1805 -22 235 -15 700 15 895 105 701 388
1306 918 1963 457 567 832 1081 992 1359 139 241 257 554 325 861 44 194 73
391 116 772 70 623 117 954 176 1224 160 744 563 1305 1189 1659 172 97 433
185 630 211 119 16 425 5 540 -19z m36346 -156 c525 -88 898 -479 996 -1044
26 -149 23 -522 -5 -705 -57 -365 -173 -706 -392 -1150 -430 -871 -1110 -1761
-2162 -2830 -605 -615 -1221 -1178 -2458 -2245 -245 -211 -499 -431 -565 -489
-196 -172 -548 -483 -576 -509 -23 -20 -30 -22 -48 -13 -12 7 -21 18 -21 27 0
8 54 206 120 441 730 2584 1425 4522 2140 5968 448 905 988 1613 1612 2111
318 255 645 403 983 447 81 11 290 6 376 -9z m-35055 -2761 c-3 -10 -15 -72
-26 -138 -36 -199 -58 -281 -104 -383 -70 -154 -224 -524 -283 -681 -85 -226
-129 -300 -211 -352 -87 -55 -132 -62 -392 -63 -232 -1 -236 -1 -290 -27 -107
-51 -163 -131 -208 -298 -22 -84 -25 -117 -26 -266 -1 -186 11 -261 65 -429
55 -168 99 -246 192 -343 102 -106 137 -156 137 -195 0 -37 -37 -109 -120
-233 -308 -459 -731 -780 -1225 -930 -195 -59 -515 -138 -1065 -265 -645 -148
-707 -165 -932 -245 -99 -36 -186 -65 -193 -65 -14 0 -95 96 -177 211 -215
301 -277 656 -158 903 108 225 355 378 843 525 214 65 310 89 672 171 l300 67
11 -56 c5 -31 18 -70 26 -87 41 -77 154 -144 312 -186 62 -17 110 -22 206 -22
136 1 173 11 204 58 24 38 20 62 -18 104 l-34 37 -275 5 -274 5 -36 28 c-49
37 -60 59 -46 94 21 55 64 96 232 222 273 202 301 234 438 481 84 151 143 209
394 390 747 538 1124 856 1465 1236 188 209 391 474 525 682 25 38 47 62 58
62 13 0 17 -5 13 -17z m413 -3929 c369 -223 571 -513 612 -883 30 -264 -70
-588 -249 -809 -25 -31 -101 -116 -170 -188 -187 -200 -264 -301 -332 -439
-109 -222 -157 -414 -167 -670 -9 -246 17 -447 93 -715 74 -259 194 -519 344
-743 207 -307 409 -505 927 -905 297 -229 500 -466 658 -765 73 -138 221 -489
283 -668 94 -271 166 -620 148 -714 l-8 -40 -65 130 c-36 72 -86 165 -111 208
-160 269 -403 500 -643 611 -42 19 -145 58 -230 86 -276 91 -475 204 -689 390
-195 170 -336 264 -565 375 -186 90 -332 146 -591 224 -110 33 -293 92 -406
131 l-206 71 10 42 c14 59 3 170 -23 247 -30 86 -140 300 -218 425 -98 155
-265 371 -552 716 -453 542 -595 734 -689 931 -69 146 -114 282 -171 518 -27
113 -79 312 -116 443 -36 130 -64 240 -61 242 3 3 99 -40 214 -96 356 -172
523 -237 721 -281 85 -19 127 -22 313 -22 185 0 230 3 320 23 541 116 963 449
1210 956 147 303 232 609 281 1015 11 96 23 181 25 188 6 20 22 14 103 -34z
m-5545 -428 c47 -183 159 -381 313 -554 l65 -72 -36 -69 c-68 -130 -83 -260
-46 -404 19 -77 91 -235 174 -382 79 -140 106 -237 307 -1100 108 -463 185
-705 300 -945 114 -238 238 -441 369 -606 136 -171 178 -294 167 -489 -13
-253 -108 -542 -274 -834 -126 -222 -853 -1321 -970 -1466 -180 -223 -423
-419 -683 -550 -89 -45 -282 -121 -330 -129 l-35 -7 50 43 c331 283 530 598
629 997 120 479 91 979 -100 1731 -67 264 -70 294 -84 990 -16 807 -30 984
-135 1715 -35 247 -71 511 -79 585 -87 765 13 1325 323 1800 l36 55 7 -105 c4
-58 18 -149 32 -204z m2014 -4891 c392 -520 550 -714 817 -1005 377 -411 607
-597 941 -763 57 -28 104 -55 104 -58 0 -4 -30 -13 -67 -20 -53 -11 -171 -13
-536 -11 -273 2 -523 -1 -602 -8 -195 -15 -308 -54 -427 -147 -90 -71 -128
-137 -128 -222 0 -56 18 -79 93 -118 83 -44 163 -39 507 30 465 94 629 140
1120 314 1232 437 1359 482 1485 533 466 187 688 239 975 227 318 -13 589
-133 833 -367 271 -259 447 -592 551 -1041 35 -154 64 -325 55 -332 -23 -20
-312 -219 -457 -316 -668 -445 -1338 -807 -2002 -1081 -1143 -472 -2210 -618
-3248 -445 -1047 175 -1838 688 -2323 1507 -66 111 -209 397 -242 484 l-16 42
47 17 c151 57 404 205 552 324 114 92 265 237 285 275 12 22 26 35 35 33 8 -2
14 -8 13 -13 -28 -150 -74 -476 -79 -554 -8 -128 8 -296 42 -449 118 -528 438
-944 1080 -1402 76 -55 148 -99 160 -99 26 0 54 34 54 66 0 35 -31 65 -207
200 -376 289 -567 475 -722 707 -137 203 -224 430 -272 707 -19 109 -17 412 4
525 69 370 161 558 617 1250 273 415 354 550 451 750 126 259 187 464 210 702
11 105 14 121 27 111 8 -7 130 -165 270 -353z m-2194 -90 c205 -816 174 -1498
-92 -1988 -179 -331 -480 -599 -766 -682 -53 -15 -92 -17 -366 -10 -169 4
-312 10 -318 14 -6 4 16 29 51 58 83 69 339 329 422 427 349 415 614 900 816
1493 63 189 152 502 188 668 25 113 30 129 35 124 3 -2 16 -49 30 -104z m3555
-1886 c108 -6 199 -14 204 -18 10 -10 -284 -103 -473 -150 -175 -43 -388 -83
-563 -106 -259 -33 -343 -10 -287 80 50 80 181 166 293 190 79 17 550 19 826
4z m-5599 -889 c30 -6 59 -15 63 -20 12 -11 -176 -101 -302 -144 -231 -80
-432 -100 -741 -72 -256 23 -631 64 -637 70 -8 7 107 47 223 77 135 34 395 75
599 94 179 16 709 13 795 -5z"/>
<path d="M24004 60800 c-28 -11 -66 -63 -88 -118 -9 -24 -82 -299 -162 -610
-234 -915 -309 -1172 -659 -2272 -176 -554 -215 -680 -215 -701 0 -63 89 -129
175 -129 42 0 52 5 84 38 20 21 50 62 66 91 17 30 46 83 65 118 53 96 87 133
147 160 103 47 36 64 1823 -470 894 -267 1915 -572 2270 -677 400 -119 667
-204 703 -223 109 -57 166 -134 188 -253 6 -32 9 -82 6 -110 -6 -62 15 -114
66 -163 45 -43 84 -44 140 -4 76 53 15 -141 656 2073 176 608 349 1206 385
1329 84 286 85 331 9 403 -23 21 -590 341 -1016 572 l-88 48 -31 -28 c-40 -39
-68 -95 -68 -140 0 -46 40 -86 190 -194 295 -212 456 -454 491 -741 25 -206
-36 -635 -142 -996 -102 -349 -305 -830 -391 -928 -85 -96 -192 -143 -301
-131 -63 6 -374 99 -1017 303 -736 233 -882 281 -920 307 -22 15 -47 43 -60
71 -35 73 -49 16 222 935 142 484 214 666 299 750 86 86 186 108 519 113 162
2 201 6 227 20 43 23 65 67 61 124 l-3 45 -825 252 c-454 139 -835 256 -846
260 -18 6 -24 0 -38 -34 -42 -105 1 -175 169 -275 232 -138 293 -236 266 -431
-12 -84 -81 -377 -146 -614 -183 -674 -258 -941 -272 -973 -21 -48 -73 -94
-116 -102 -41 -8 -13 -15 -587 152 -950 275 -1516 445 -1540 460 -73 46 -103
95 -102 168 0 33 45 210 132 520 210 748 301 1047 347 1139 30 60 109 145 172
185 121 77 242 91 636 71 252 -12 264 -12 301 6 49 25 75 61 81 115 l5 44
-264 99 c-144 54 -393 150 -553 214 -358 142 -398 154 -451 132z"/>
<path d="M22534 55430 c-32 -13 -62 -56 -79 -114 -9 -28 -72 -413 -140 -856
-233 -1512 -280 -1794 -375 -2260 -112 -544 -114 -558 -100 -602 21 -72 106
-86 195 -33 90 54 124 94 161 194 47 129 82 175 162 212 56 26 128 26 307 0
77 -11 237 -32 355 -46 318 -37 396 -49 845 -131 977 -178 3346 -625 3386
-639 154 -55 214 -138 229 -319 6 -79 13 -114 31 -145 37 -66 119 -95 217 -75
27 5 32 12 41 53 6 25 94 548 195 1161 102 613 239 1435 305 1827 67 391 121
734 121 761 0 89 -29 136 -111 177 -59 31 -566 235 -794 321 -164 62 -187 67
-255 67 -96 0 -144 -20 -167 -68 -30 -63 -15 -81 122 -150 304 -152 539 -375
627 -596 55 -137 63 -205 63 -544 0 -337 -8 -428 -66 -715 -48 -244 -184 -703
-239 -810 -50 -97 -130 -168 -213 -191 -71 -19 -147 -11 -487 50 -484 87
-1492 285 -1562 307 -28 8 -95 92 -113 139 -16 40 -16 51 0 152 55 358 247
1343 278 1429 35 96 102 169 193 211 55 25 172 43 282 43 75 0 208 26 239 46
13 8 41 37 63 66 l41 51 -42 43 c-24 24 -57 48 -73 54 -17 5 -96 16 -176 25
-316 34 -310 33 -1030 185 -212 45 -391 82 -399 83 -20 3 -45 -85 -36 -129 10
-57 59 -101 179 -161 190 -95 266 -157 310 -252 33 -72 29 -265 -13 -551 -62
-430 -182 -1195 -192 -1228 -24 -72 -91 -122 -164 -122 -40 0 -1920 312 -2025
336 -102 23 -166 58 -194 107 -37 63 -40 122 -17 297 61 451 204 1292 237
1395 82 253 273 399 557 425 56 6 186 14 288 18 206 10 218 13 288 86 l34 35
-48 55 c-32 38 -59 59 -84 66 -20 6 -207 53 -416 105 -209 52 -438 110 -510
129 -130 35 -192 42 -231 26z"/>
<path d="M26304 50046 c-50 -22 -86 -122 -64 -176 13 -31 45 -49 134 -75 78
-22 260 -113 366 -183 162 -107 294 -262 360 -423 35 -85 73 -249 96 -424 25
-181 25 -621 1 -825 -31 -254 -98 -621 -134 -735 -23 -71 -78 -151 -130 -186
-79 -55 -118 -63 -287 -56 -177 7 -701 43 -1396 96 -547 42 -540 41 -587 112
-22 34 -27 55 -31 122 -6 122 52 1051 83 1317 42 361 108 431 496 526 261 63
259 63 292 95 27 28 29 34 25 89 -2 33 -7 62 -10 66 -11 10 -1742 132 -1752
123 -5 -5 -12 -35 -14 -67 -4 -52 -1 -61 23 -90 34 -40 59 -54 187 -98 241
-84 323 -157 359 -319 18 -77 15 -412 -6 -990 -24 -644 -28 -694 -56 -746 -26
-46 -68 -76 -127 -90 -24 -5 -215 2 -537 21 -275 16 -725 41 -1000 55 -514 26
-596 36 -661 76 -84 52 -118 146 -109 304 3 55 15 330 25 610 21 532 31 680
57 805 31 158 73 248 151 332 114 122 286 182 682 238 167 24 220 44 244 94
18 38 21 121 5 131 -5 4 -92 18 -192 31 -361 48 -556 76 -782 110 -239 37
-303 39 -349 9 -28 -18 -50 -69 -60 -135 -5 -39 -75 -1284 -176 -3125 -34
-629 -33 -645 38 -665 48 -13 148 -13 173 0 26 14 41 46 103 220 101 281 125
300 372 300 218 0 950 -28 1439 -56 546 -30 3156 -225 3262 -244 83 -14 143
-41 193 -86 59 -53 87 -115 104 -229 15 -102 32 -139 77 -163 32 -17 175 -11
194 9 23 23 32 158 111 1629 41 767 83 1550 94 1740 26 452 26 484 -2 540 -13
24 -35 53 -50 63 -28 21 -222 77 -718 208 -168 44 -332 88 -365 99 -90 28
-117 31 -151 16z"/>
<path d="M72238 45755 c-325 -62 -576 -289 -674 -610 -24 -80 -27 -106 -28
-240 -1 -174 10 -226 80 -372 120 -252 352 -432 632 -490 117 -24 310 -14 422
22 364 116 597 418 617 800 12 244 -66 459 -231 632 -114 121 -250 202 -411
244 -106 27 -301 34 -407 14z"/>
<path d="M27157 44896 c-26 -26 -35 -74 -47 -241 -31 -437 -68 -467 -625 -510
-191 -14 -845 -44 -1440 -65 -307 -11 -1644 -28 -2485 -32 -400 -1 -546 1
-577 10 -83 25 -167 109 -194 197 -6 22 -40 166 -73 320 l-62 280 -28 3 c-47
6 -114 -18 -141 -49 -13 -17 -27 -49 -31 -77 -4 -26 0 -267 10 -537 9 -269 21
-670 27 -890 14 -536 20 -631 46 -681 29 -57 82 -84 165 -84 l66 0 6 88 c26
371 35 428 85 517 49 87 135 131 305 155 276 37 2592 93 4261 102 397 2 446 1
499 -15 107 -33 172 -96 210 -204 17 -48 48 -228 72 -426 l18 -138 45 6 c110
15 155 28 179 52 l25 25 -6 177 c-4 97 -16 410 -27 696 -11 286 -24 669 -29
850 -9 346 -13 377 -59 429 -38 42 -167 70 -195 42z"/>
<path d="M79415 42594 c-151 -15 -255 -28 -355 -45 -612 -105 -1212 -385
-1703 -794 -247 -206 -492 -451 -696 -695 -1000 -1198 -1303 -2681 -894 -4370
165 -681 479 -1302 914 -1805 118 -137 381 -392 511 -496 661 -528 1426 -837
2320 -935 184 -21 598 -24 768 -6 63 7 185 24 270 38 1063 176 2011 822 2703
1842 68 98 77 118 77 157 0 51 -31 138 -63 177 -29 35 -148 129 -158 126 -5
-2 -56 -61 -115 -133 -589 -722 -1188 -1135 -1964 -1355 -929 -262 -1758 -116
-2385 422 -653 560 -1071 1567 -1219 2933 -41 382 -58 755 -36 810 16 41 48
74 90 94 32 14 297 15 3002 12 l2967 -4 7 28 c10 39 -3 343 -22 505 -76 669
-354 1400 -735 1932 -521 726 -1275 1243 -2125 1457 -312 78 -506 102 -849
106 -148 2 -288 1 -310 -1z m525 -585 c562 -66 1005 -344 1319 -829 70 -107
182 -330 235 -467 137 -353 213 -808 204 -1218 -4 -187 -13 -215 -88 -252
l-44 -23 -1998 0 c-2173 0 -2046 -3 -2084 55 -14 22 -16 41 -11 118 15 225 80
587 148 829 156 552 463 1062 818 1359 425 356 919 497 1501 428z"/>
<path d="M99057 38543 c-10 -20 -320 -1184 -316 -1188 3 -2 20 -6 37 -7 31 -3
34 0 57 57 29 71 86 129 141 144 56 16 189 13 285 -5 93 -17 1230 -322 1241
-332 7 -7 -308 -1182 -320 -1193 -10 -8 -1178 310 -1272 346 -41 17 -107 51
-147 78 -59 39 -76 57 -99 102 -23 49 -26 64 -23 136 l4 82 -28 10 c-16 5 -31
7 -34 4 -3 -3 -76 -268 -163 -589 -168 -621 -159 -596 -212 -574 -11 5 -20 1
-28 -15 -11 -20 -8 -26 29 -57 48 -39 91 -108 91 -144 0 -34 -63 -127 -150
-223 -194 -213 -299 -401 -363 -655 -18 -72 -21 -113 -21 -265 0 -168 2 -186
28 -270 33 -108 126 -303 191 -400 227 -337 548 -607 970 -815 740 -364 1524
-432 2036 -175 135 68 204 118 309 224 104 106 169 206 227 346 123 304 113
604 -31 900 -46 96 -182 311 -233 370 -16 18 -78 46 -305 136 l-48 19 61 -73
c121 -143 234 -327 286 -466 171 -456 -76 -867 -588 -978 -68 -14 -129 -18
-314 -18 -219 1 -237 2 -380 32 -504 106 -1143 385 -1504 655 -233 175 -354
328 -423 534 -32 98 -32 250 0 349 75 228 262 396 515 465 40 11 104 24 142
30 91 14 330 14 436 0 80 -11 277 -52 309 -64 11 -5 19 3 27 24 10 27 9 32 -5
37 -116 44 -1129 446 -1134 451 -11 12 30 105 64 146 49 59 95 76 215 76 56 0
134 -6 175 -14 83 -16 2783 -745 2870 -775 145 -50 259 -127 292 -196 16 -33
21 -105 13 -194 -2 -19 4 -26 28 -32 16 -5 33 -5 36 -1 15 15 321 1174 313
1182 -5 5 -20 11 -34 15 -23 5 -27 1 -54 -60 -31 -71 -66 -107 -136 -139 -66
-30 -202 -28 -340 7 -132 32 -1333 357 -1337 361 -4 4 315 1188 322 1195 7 7
1301 -344 1400 -380 112 -41 212 -104 250 -157 29 -42 30 -48 30 -147 l-1
-103 30 -6 c16 -4 33 -3 36 1 10 11 322 1174 317 1179 -2 3 -19 9 -36 14 -26
7 -33 6 -37 -8 -16 -56 -62 -128 -98 -153 -80 -59 -178 -71 -327 -43 -85 16
-2774 739 -2884 775 -93 31 -200 87 -249 130 -62 55 -80 107 -73 209 l5 79
-30 10 c-37 13 -36 13 -41 4z"/>
<path d="M97151 32946 c-110 -216 -201 -398 -201 -403 0 -6 13 -16 30 -23 29
-12 32 -11 94 48 151 140 289 157 531 63 41 -16 451 -221 911 -457 740 -379
834 -430 808 -436 -16 -4 -681 -69 -1479 -143 -797 -75 -1453 -140 -1457 -143
-3 -4 -103 -196 -222 -427 l-215 -420 31 -16 c31 -16 32 -16 77 19 106 81 253
127 553 172 l193 28 1145 -585 c630 -322 1177 -604 1215 -626 186 -108 282
-222 305 -362 9 -56 5 -104 -16 -195 -5 -22 0 -28 28 -41 l33 -16 212 416
c117 229 213 417 213 418 0 1 -14 10 -31 18 l-31 16 -49 -51 c-117 -122 -265
-138 -519 -54 -114 38 -195 78 -1388 689 -531 272 -775 402 -764 407 9 3 808
82 1775 174 l1759 169 15 28 c8 16 13 30 11 31 -2 2 -664 342 -1472 755 -808
414 -1510 778 -1560 809 -111 68 -213 167 -250 243 -29 60 -37 138 -23 220 7
43 6 46 -18 57 -14 7 -30 12 -34 12 -5 0 -99 -177 -210 -394z"/>
<path d="M95163 29445 l-92 -145 602 -617 c331 -340 849 -872 1152 -1183 606
-622 686 -710 780 -850 102 -152 140 -287 112 -397 -8 -29 -6 -33 23 -48 18
-9 36 -13 40 -8 14 16 399 630 405 646 5 11 -3 20 -24 31 -30 16 -32 15 -75
-18 -123 -94 -221 -85 -396 34 -70 49 -128 104 -464 446 l-276 282 205 323
c112 178 210 328 218 333 11 7 592 -169 827 -251 97 -34 255 -107 303 -140 84
-58 113 -180 66 -283 l-20 -44 23 -18 c13 -10 29 -17 36 -15 11 1 672 1030
672 1044 0 2 -14 12 -32 23 l-31 19 -42 -34 c-22 -19 -72 -49 -111 -67 -65
-31 -75 -33 -179 -32 -77 0 -134 7 -190 21 -60 16 -3371 1067 -3430 1089 -5 2
-51 -61 -102 -141z m1319 -875 c342 -110 623 -201 625 -204 6 -6 -337 -546
-346 -546 -7 0 -710 722 -867 889 -38 41 -61 72 -51 68 10 -4 298 -97 639
-207z"/>
<path d="M94178 27510 c-178 -28 -354 -123 -483 -261 -28 -30 -241 -308 -474
-618 l-424 -564 28 -24 28 -24 41 39 c126 123 257 117 468 -21 52 -34 607
-447 1234 -918 1151 -865 1230 -928 1302 -1043 55 -86 52 -175 -9 -271 l-28
-44 30 -22 c17 -12 34 -18 39 -13 5 5 173 227 374 494 l365 485 -27 21 -27 22
-54 -49 c-79 -74 -101 -82 -190 -77 -87 6 -167 38 -272 109 -66 44 -1053 781
-1078 804 -11 11 -5 22 32 70 86 110 179 155 318 155 170 0 355 -48 1084 -282
259 -83 632 -198 641 -198 2 0 118 153 259 340 l254 339 -30 22 c-30 21 -33
21 -58 5 -65 -42 -95 -50 -191 -50 -134 0 -218 19 -815 181 -694 188 -876 224
-1062 207 l-76 -7 6 24 c15 61 18 173 8 251 -40 299 -241 570 -571 768 -198
119 -456 179 -642 150z m66 -541 c163 -55 342 -169 503 -323 108 -102 171
-183 219 -279 83 -163 85 -326 8 -480 -24 -47 -132 -207 -141 -207 -2 0 -298
221 -658 491 l-655 492 27 36 c111 149 178 213 272 261 115 58 270 61 425 9z"/>
<path d="M92548 25520 c-179 -32 -299 -101 -454 -262 -52 -53 -684 -778 -940
-1079 -12 -13 -10 -19 17 -38 l31 -23 31 32 c64 65 104 85 176 85 57 0 77 -5
143 -39 43 -22 115 -67 160 -102 165 -125 2241 -1938 2300 -2008 70 -83 118
-176 118 -226 0 -49 -22 -110 -59 -164 l-30 -43 27 -26 28 -27 534 616 c294
339 565 656 601 704 78 103 107 172 122 294 20 168 -24 372 -120 548 -153 281
-496 564 -773 637 -101 27 -231 42 -299 35 -163 -17 -350 -94 -490 -199 -40
-31 -76 -54 -78 -51 -3 2 7 35 22 72 15 37 38 111 52 163 21 83 24 112 20 211
-9 230 -83 393 -256 568 -219 220 -435 320 -706 327 -71 2 -151 0 -177 -5z
m55 -504 c170 -58 336 -175 519 -364 176 -182 247 -323 234 -465 -15 -164 -63
-273 -181 -410 -42 -48 -80 -87 -85 -87 -10 0 -1173 1007 -1178 1020 -4 12
161 198 220 248 98 82 162 104 288 96 60 -3 113 -14 183 -38z m1416 -1081
c176 -37 364 -153 573 -353 218 -210 317 -396 305 -578 -6 -98 -33 -164 -109
-267 -63 -85 -129 -138 -205 -167 -92 -34 -175 -11 -303 86 -53 41 -939 803
-1004 865 -19 17 -17 20 70 120 186 215 345 307 531 308 39 1 103 -6 142 -14z"/>
<path d="M90233 23287 c-10 -12 -25 -35 -32 -52 -7 -16 -24 -48 -39 -69 -26
-37 -1366 -1329 -1441 -1389 -42 -33 -104 -67 -124 -67 -8 0 -22 -9 -32 -20
-18 -20 -18 -21 7 -48 13 -15 148 -160 298 -322 150 -162 279 -302 287 -310
11 -13 16 -12 33 5 20 20 20 21 -42 120 -34 55 -86 151 -116 214 -49 102 -56
123 -60 192 -7 117 5 135 229 350 l190 182 58 -59 c48 -49 1636 -1707 2041
-2130 124 -130 200 -234 237 -323 38 -94 28 -155 -41 -249 l-44 -60 22 -21
c12 -12 26 -21 30 -21 6 0 617 582 826 786 l65 64 -27 27 -27 27 -23 -21 c-41
-37 -110 -67 -167 -71 -118 -8 -213 52 -432 275 -304 308 -2089 2177 -2087
2184 2 5 87 89 191 188 220 210 245 226 363 226 74 0 87 -3 155 -38 61 -31
187 -119 314 -219 21 -17 23 -17 38 0 14 16 -10 42 -308 344 l-322 327 -20
-22z"/>
<path d="M88259 21352 c-173 -145 -329 -277 -347 -292 l-33 -27 24 -28 24 -28
69 27 c83 34 197 45 273 26 64 -15 147 -68 236 -151 65 -61 1290 -1508 1282
-1515 -2 -2 -641 197 -1421 442 l-1417 445 -32 -27 c-18 -15 -182 -153 -364
-306 -349 -294 -345 -289 -299 -327 12 -10 24 -9 61 3 111 38 327 14 637 -71
l137 -38 833 -990 c457 -544 854 -1019 880 -1054 99 -129 143 -249 136 -370
-5 -85 -27 -142 -80 -212 l-35 -45 24 -28 c21 -25 26 -26 43 -14 33 22 699
583 699 588 1 3 -9 18 -22 33 l-22 28 -45 -25 c-58 -32 -141 -46 -206 -36 -95
15 -228 96 -352 214 -63 60 -1521 1781 -1530 1806 -2 5 16 4 40 -4 24 -7 789
-246 1702 -531 l1658 -517 23 23 23 24 -1040 1235 c-572 679 -1076 1282 -1119
1340 -187 249 -215 420 -96 582 l20 27 -25 29 -24 29 -315 -265z"/>
<path d="M85331 18996 c-415 -309 -756 -567 -758 -572 -2 -6 5 -22 16 -35 19
-24 20 -24 48 -6 52 34 98 50 150 55 80 7 146 -30 263 -147 77 -77 260 -317
938 -1228 463 -622 863 -1164 889 -1204 58 -90 102 -194 110 -257 8 -74 -11
-124 -72 -191 -30 -32 -55 -63 -55 -67 1 -5 9 -19 20 -32 l19 -23 796 592 795
593 -18 27 c-61 95 -508 748 -513 749 -3 0 -13 -6 -23 -13 -16 -11 -14 -20 30
-117 168 -379 177 -561 34 -723 -50 -57 -241 -200 -306 -229 -120 -53 -249
-13 -379 116 -42 42 -213 262 -423 545 l-352 474 193 144 c217 162 260 183
371 183 94 0 166 -34 266 -127 58 -54 75 -65 88 -56 10 5 17 14 17 20 0 10
-667 911 -676 912 -3 1 -13 -5 -23 -12 -18 -13 -17 -17 21 -83 118 -202 127
-365 27 -484 -27 -32 -413 -326 -418 -318 -22 27 -964 1296 -969 1304 -6 10
388 313 474 363 49 29 124 41 181 31 110 -21 214 -87 401 -254 81 -72 101 -86
112 -76 8 7 15 17 15 22 0 8 -492 642 -524 675 -8 9 -191 -123 -765 -551z"/>
<path d="M83725 17740 c-118 -24 -199 -52 -315 -109 -71 -35 -996 -635 -1360
-882 -20 -13 -264 -152 -543 -309 -279 -157 -507 -288 -507 -293 0 -4 7 -18
16 -32 l15 -23 44 19 c152 67 288 4 419 -194 56 -85 856 -1503 970 -1719 78
-149 148 -312 183 -427 23 -75 26 -104 27 -236 1 -168 -11 -231 -67 -345 -58
-118 -185 -221 -308 -249 -65 -15 -167 -13 -234 4 -223 58 -420 234 -624 557
-66 105 -938 1652 -996 1768 -127 253 -118 392 32 497 l42 30 -20 32 c-18 30
-20 31 -47 17 -15 -8 -252 -141 -526 -295 -275 -155 -503 -281 -507 -281 -5 0
-13 9 -19 20 -16 31 -33 25 -91 -32 -30 -29 -81 -67 -114 -85 -123 -65 -1713
-821 -1758 -837 -26 -9 -65 -16 -86 -16 -43 0 -103 -18 -99 -30 26 -65 383
-830 388 -830 3 0 14 6 24 13 18 13 18 18 -8 123 -37 158 -59 309 -53 382 6
74 45 162 87 192 40 28 482 240 490 235 15 -9 1371 -2856 1396 -2931 17 -52
28 -110 31 -171 5 -86 4 -94 -21 -137 -23 -40 -76 -88 -132 -122 -16 -9 -16
-14 -5 -42 8 -18 16 -32 20 -32 3 0 257 120 563 266 l556 267 -16 34 c-10 20
-21 32 -29 28 -64 -24 -131 -36 -167 -31 -100 16 -195 99 -273 237 -34 59
-1206 2497 -1353 2815 l-38 81 237 113 c275 130 312 141 401 116 114 -31 192
-106 332 -315 67 -101 73 -108 94 -99 22 10 19 18 -152 359 -96 192 -174 351
-174 353 0 2 21 12 48 22 66 26 155 24 209 -4 57 -30 139 -113 195 -198 25
-38 246 -424 490 -859 245 -434 482 -851 527 -925 293 -478 527 -706 841 -821
221 -80 407 -86 595 -18 357 129 536 477 495 958 -6 73 -13 146 -17 162 -3 16
-3 29 0 29 3 0 85 -142 182 -315 98 -173 182 -315 187 -315 15 0 787 434 788
443 0 4 -7 18 -16 32 l-15 24 -47 -21 c-64 -28 -163 -30 -217 -3 -54 26 -151
124 -207 210 -63 96 -1440 2547 -1473 2620 -36 83 -65 191 -65 246 0 67 43
143 110 196 121 96 218 123 301 86 57 -26 163 -124 232 -217 115 -154 1619
-2449 1657 -2528 40 -84 70 -182 70 -228 0 -45 -45 -124 -99 -172 -54 -49 -54
-49 -22 -97 7 -11 155 83 677 427 368 243 701 470 741 504 167 146 276 307
351 518 55 156 67 236 67 445 0 198 -7 259 -52 445 -74 308 -273 708 -506
1013 -369 486 -848 815 -1296 891 -128 22 -339 20 -456 -4z m167 -398 c258
-69 503 -226 769 -491 308 -309 569 -695 739 -1096 126 -296 187 -603 161
-812 -26 -216 -109 -351 -301 -495 -274 -204 -422 -191 -613 54 -56 73 -1677
2522 -1677 2535 0 3 18 25 40 50 108 123 290 227 470 269 83 20 315 12 412
-14z"/>
<path d="M76983 14188 c-18 -9 -23 -20 -23 -49 0 -97 -50 -126 -242 -140 -162
-11 -238 -29 -345 -80 -119 -57 -197 -138 -263 -272 -88 -180 -121 -381 -101
-608 35 -381 172 -708 387 -923 180 -180 347 -272 864 -478 348 -139 414 -169
500 -228 149 -102 250 -260 286 -448 18 -93 17 -149 -1 -237 -31 -145 -105
-244 -228 -305 -59 -29 -80 -34 -165 -38 -70 -3 -115 0 -162 12 -212 54 -421
222 -585 472 -43 65 -82 123 -85 127 -8 9 -60 -12 -60 -24 0 -9 397 -1010 403
-1016 2 -2 16 1 31 6 23 9 26 16 26 56 0 25 7 59 15 75 27 51 63 62 242 71
248 12 349 35 498 112 107 55 245 190 304 297 167 302 155 692 -32 1092 -66
142 -145 257 -253 368 -200 206 -389 306 -1094 580 -289 112 -471 253 -559
432 -153 311 -83 612 163 699 80 28 201 26 287 -5 161 -57 356 -225 496 -429
42 -61 50 -67 73 -62 14 4 29 10 33 14 8 8 -373 942 -383 940 -3 0 -15 -5 -27
-11z"/>
<path d="M73970 12971 c-212 -64 -392 -119 -399 -122 -13 -5 -11 -178 13
-1328 16 -727 27 -1323 25 -1325 -2 -2 -332 499 -732 1114 -421 648 -733 1117
-740 1115 -7 -3 -210 -63 -451 -135 -242 -72 -442 -132 -444 -135 -2 -2 1 -19
7 -37 11 -32 13 -33 68 -36 153 -7 310 -93 450 -246 l58 -64 278 -1253 c153
-690 287 -1301 298 -1359 29 -155 37 -417 15 -495 -24 -84 -68 -148 -127 -185
-27 -18 -49 -33 -49 -35 0 -1 5 -16 11 -34 8 -22 16 -30 28 -27 9 3 198 60
421 126 223 66 408 121 411 123 3 1 2 17 -3 35 l-9 32 -70 0 c-107 0 -152 15
-214 72 -94 86 -171 232 -231 436 -13 47 -137 553 -275 1126 -137 573 -256
1065 -264 1094 -7 28 -10 50 -5 47 4 -2 391 -599 861 -1326 l853 -1321 30 6
c16 4 30 7 32 9 1 1 -14 673 -32 1492 -19 820 -33 1550 -31 1624 l2 133 324
-913 c178 -503 371 -1047 429 -1209 57 -162 115 -338 129 -390 58 -225 20
-361 -124 -442 -49 -28 -54 -33 -48 -57 4 -14 9 -29 13 -33 6 -6 1139 326
1150 337 3 3 1 19 -4 37 -9 31 -13 33 -70 40 -110 12 -143 26 -198 82 -63 64
-145 220 -214 406 -136 366 -941 2622 -952 2670 -19 78 -18 177 4 233 21 54
71 102 151 141 30 14 55 28 55 30 0 18 -25 66 -33 65 -7 -1 -185 -54 -397
-118z"/>
<path d="M70640 12033 c-217 -42 -396 -76 -397 -77 -1 -1 -50 -593 -109 -1316
-59 -723 -110 -1318 -113 -1322 -3 -4 -278 525 -611 1174 -333 649 -610 1182
-617 1185 -7 3 -217 -34 -467 -81 -251 -47 -458 -86 -460 -86 -3 0 -4 -6 -2
-12 3 -7 7 -25 10 -39 5 -23 12 -27 57 -33 145 -19 307 -132 429 -296 l49 -66
146 -1264 c80 -695 150 -1327 156 -1404 12 -144 6 -309 -12 -400 -26 -122
-102 -228 -187 -258 -31 -12 -33 -15 -28 -47 3 -18 7 -36 10 -39 5 -4 866 154
872 161 2 2 1 20 -3 40 l-6 37 -56 0 c-32 0 -80 7 -109 15 -124 37 -226 211
-282 480 -22 101 -322 2331 -318 2353 2 6 324 -620 717 -1393 698 -1372 715
-1405 743 -1405 16 0 31 6 33 13 4 10 264 3161 266 3221 0 21 1 21 10 1 17
-37 608 -2500 620 -2584 32 -228 -23 -358 -179 -423 -44 -19 -52 -26 -48 -43
3 -11 6 -26 6 -32 0 -7 8 -13 18 -13 30 0 1157 212 1165 220 5 4 5 23 2 43 -6
33 -9 35 -58 41 -155 21 -235 111 -318 356 -40 121 -706 2825 -720 2925 -18
131 19 254 91 301 21 14 65 36 97 49 32 13 58 29 57 34 -1 6 -2 22 -2 36 -2
21 -7 25 -29 24 -16 -1 -206 -35 -423 -76z"/>
<path d="M67180 11482 c-333 -36 -606 -66 -608 -68 -2 -1 0 -17 3 -35 6 -34 7
-34 65 -36 148 -6 240 -105 289 -313 13 -52 81 -649 177 -1540 167 -1559 167
-1561 128 -1701 -29 -103 -92 -153 -228 -184 -26 -5 -28 -9 -22 -37 3 -17 8
-34 11 -36 6 -6 1203 121 1216 129 5 3 6 20 3 37 -6 30 -9 32 -51 32 -86 0
-134 19 -194 79 -61 62 -87 116 -113 242 -20 98 -326 2952 -326 3037 1 82 23
209 43 248 32 62 112 113 200 130 37 6 39 8 33 37 -3 16 -6 33 -6 38 0 5 -3 8
-7 8 -5 -1 -280 -31 -613 -67z"/>
<path d="M66265 11390 c-10 -22 -26 -47 -36 -56 -30 -27 -97 -28 -190 -4 -300
79 -411 80 -574 6 -336 -155 -570 -723 -515 -1251 17 -167 50 -290 115 -422
107 -219 259 -389 655 -735 346 -301 431 -400 481 -558 30 -93 37 -273 15
-371 -30 -134 -99 -247 -195 -319 -73 -55 -139 -75 -241 -74 -140 1 -259 56
-376 173 -146 146 -250 355 -303 610 -11 51 -22 95 -25 98 -2 3 -19 2 -36 -2
l-31 -7 6 -101 c7 -118 35 -895 35 -956 0 -40 1 -41 35 -41 25 0 35 4 35 15 0
32 41 95 72 111 40 20 95 14 210 -25 165 -56 264 -74 393 -74 147 0 227 18
350 78 257 125 429 379 492 729 20 110 22 364 4 481 -50 325 -170 551 -431
815 -111 112 -162 159 -445 404 -349 303 -455 479 -455 754 0 222 80 383 231
467 50 28 61 30 159 30 97 0 110 -2 173 -32 125 -59 244 -198 332 -387 35 -74
70 -173 111 -313 2 -8 19 -13 39 -13 l37 0 -7 88 c-7 107 -45 850 -45 892 0
26 -3 30 -28 30 -24 0 -32 -7 -47 -40z"/>
<path d="M63550 11298 c0 -35 1 -35 57 -47 154 -31 232 -142 252 -361 11 -118
-15 -2922 -28 -3036 -28 -238 -101 -337 -261 -351 l-60 -6 0 -37 0 -37 362 -6
c199 -4 478 -7 620 -7 l259 0 -3 38 -3 37 -55 6 c-101 11 -172 64 -219 163
-43 93 -44 117 -36 1201 10 1518 20 2035 38 2116 23 98 54 164 98 203 40 36
119 66 176 66 32 0 33 1 33 40 l0 40 -253 0 c-140 0 -416 3 -615 7 l-362 6 0
-35z"/>
</g>
</svg>
